<?xml version="1.0" encoding="UTF-8" standalone="no"?>
<!-- Created with Inkscape (http://www.inkscape.org/) -->

<svg
   width="122.55972mm"
   height="152.82712mm"
   viewBox="0 0 122.55972 152.82712"
   version="1.1"
   id="svg1"
   inkscape:version="1.4.2 (ebf0e940d0, 2025-05-08)"
   sodipodi:docname="drawing.svg"
   xmlns:inkscape="http://www.inkscape.org/namespaces/inkscape"
   xmlns:sodipodi="http://sodipodi.sourceforge.net/DTD/sodipodi-0.dtd"
   xmlns="http://www.w3.org/2000/svg"
   xmlns:svg="http://www.w3.org/2000/svg">
  <sodipodi:namedview
     id="namedview1"
     pagecolor="#ffffff"
     bordercolor="#000000"
     borderopacity="0.25"
     inkscape:showpageshadow="2"
     inkscape:pageopacity="0.0"
     inkscape:pagecheckerboard="0"
     inkscape:deskcolor="#d1d1d1"
     inkscape:document-units="mm"
     inkscape:zoom="0.77682379"
     inkscape:cx="251.02218"
     inkscape:cy="438.96699"
     inkscape:window-width="2752"
     inkscape:window-height="1083"
     inkscape:window-x="0"
     inkscape:window-y="32"
     inkscape:window-maximized="1"
     inkscape:current-layer="layer1" />
  <defs
     id="defs1" />
  <g
     inkscape:label="Layer 1"
     inkscape:groupmode="layer"
     id="layer1"
     transform="translate(-38.527198,-32.196667)">
    <path
       id="path2"
       d="m 155.77919,101.24969 c -0.46849,-0.39406 -0.92393,-0.80152 -1.36702,-1.22238 -0.51152,-0.484716 -0.91334,-0.942975 -1.20544,-1.374422 -0.369,-0.541867 -0.68015,-1.118305 -0.9338,-1.729317 -0.17216,-0.413808 -0.83009,-1.683103 -1.97379,-3.808589 -0.0882,-0.163689 -0.19438,-0.445205 -0.31856,-0.844197 -7.1e-4,-0.0035 -0.001,-0.0071 -0.002,-0.01023 -0.003,-0.02787 0.0166,-0.05221 0.0437,-0.05468 0.375,-0.03845 0.74965,-0.07691 1.12324,-0.116417 0.75989,-0.07973 1.44675,0.09031 2.06093,0.51047 0.0882,0.06032 0.13582,0.03704 0.14288,-0.06985 0.008,-0.110067 -0.0208,-0.200378 -0.0854,-0.270228 -0.42757,-0.465314 -0.82198,-0.956734 -1.18322,-1.474964 -0.97437,-1.399822 -1.9685,-2.785534 -2.98238,-4.157134 -0.008,-0.01058 -0.19368,-0.2667 -0.55845,-0.76835 -0.54822,-0.75565 -1.08374,-1.396294 -1.60655,-1.922639 -0.58844,-0.593372 -1.27177,-1.092905 -2.04999,-1.499305 -1.1042,-0.576792 -2.24226,-0.989189 -3.4156,-1.237192 -0.0402,-0.0081 -0.073,-0.01058 -0.0995,-0.0074 -0.0649,0.0088 -0.0857,0.04057 -0.0621,0.09419 0.0123,0.02858 0.0388,0.05292 0.0794,0.07338 0.54081,0.273403 1.10526,0.703792 1.69263,1.291167 0.68862,0.687916 1.22802,1.376186 1.61925,2.064455 0.25682,0.453673 0.38806,0.684742 0.39264,0.692856 0.14605,0.250472 0.28364,0.508706 0.4124,0.7747 0.0254,0.05292 0.0127,0.06456 -0.0378,0.03422 -0.40393,-0.235655 -0.82655,-0.383469 -1.26788,-0.443088 -0.34043,-0.04657 -0.51894,-0.07091 -0.53622,-0.07338 -0.2152,-0.03422 -0.43215,-0.05786 -0.65088,-0.07091 -0.0409,-0.0025 -0.0437,0.0074 -0.009,0.02928 0.19932,0.124883 0.33691,0.223661 0.41381,0.295981 0.53023,0.500238 1.06116,0.999419 1.59209,1.498247 0.36477,0.341842 0.66745,0.732014 0.90805,1.170869 0.29386,0.536223 0.55774,1.086203 0.79198,1.649942 0.0723,0.176036 0.19685,0.299861 0.37324,0.37077 0.14605,0.05786 0.14147,0.09913 -0.0134,0.123825 -0.89041,0.138641 -1.72544,0.449791 -2.50543,0.93345 -0.0586,0.03598 -0.0547,0.06456 0.0109,0.08572 2.21932,0.717197 3.85868,2.04858 4.91737,3.994503 0.0198,0.03563 0.0123,0.04269 -0.0219,0.02081 -0.17321,-0.110773 -0.35771,-0.198261 -0.55456,-0.261761 -1.05481,-0.341137 -2.16923,-0.450498 -3.34328,-0.328084 -0.12065,0.01199 -0.12453,0.04022 -0.0113,0.08431 0.0444,0.01729 0.0861,0.04057 0.12947,0.05997 1.3649,1.256595 2.60985,2.588684 3.65196,4.066117 0.53975,0.756705 1.03646,1.539875 1.48378,2.348795 0.44133,0.8128 0.83397,1.64888 1.17475,2.50543 0.70273,1.70815 1.08515,3.5179 1.4672,5.37915 0.005,0.0243 0.0102,0.049 0.0148,0.0734 -0.14675,-0.36089 -0.30092,-0.7186 -0.47202,-1.06856 -0.50729,-1.03893 -1.1183,-2.02777 -1.82915,-2.93723 -0.71332,-0.90664 -1.51588,-1.74484 -2.44475,-2.43275 0.57609,1.00012 1.16064,1.95509 1.70639,2.92735 0.54786,0.96943 1.0675,1.94557 1.55328,2.93828 0.48613,0.99307 0.93768,2.00237 1.36666,3.03036 0.43215,1.02765 0.82656,2.07575 1.26083,3.14502 0.002,-0.10442 -0.005,-0.20814 -0.006,-0.31186 0.0504,-1.84044 -0.0628,-3.67876 -0.27234,-5.50545 -0.11184,-0.94826 -0.24342,-1.899 -0.44592,-2.85115 -0.20602,-0.95144 -0.4826,-1.89618 -0.84948,-2.80211 -0.36195,-0.9084 -0.79622,-1.78682 -1.29752,-2.62432 -0.30339,-0.49847 -0.63359,-0.97966 -0.98319,-1.445326 0.3877,0.194733 0.78881,0.358776 1.20791,0.482246 0.83467,0.24624 1.25624,0.37112 1.26541,0.3743 0.80857,0.27023 1.62595,0.51082 2.45251,0.72213 0.0342,0.009 0.0639,0.01 0.0893,0.002 0.0727,-0.0198 0.0716,-0.061 -0.004,-0.12488 m -7.64046,17.80082 c -0.15276,-0.95074 -0.41311,-1.84821 -0.66816,-2.72662 -0.25683,-0.88124 -0.49566,-1.74273 -0.66429,-2.68464 -0.0339,0.10371 -0.0631,0.20884 -0.0896,0.31432 -0.0215,-0.16792 -0.0413,-0.3362 -0.0723,-0.50271 -0.11218,1.96533 -0.65158,3.81353 -1.39559,5.57495 -0.74295,1.76424 -1.67322,3.45193 -2.60315,5.16114 -0.93098,1.71309 -1.84608,3.4738 -2.49766,5.35799 -0.64735,1.87184 -1.02835,3.90384 -0.74578,5.86175 0.1965,-1.95862 0.79164,-3.78812 1.57304,-5.53684 0.78035,-1.75049 1.73073,-3.43006 2.66206,-5.14386 0.93239,-1.71732 1.82951,-3.4932 2.44228,-5.39326 0.25259,-0.78105 0.45015,-1.59033 0.57538,-2.40806 0.10231,0.78916 0.25083,1.55469 0.36866,2.30187 0.14252,0.88053 0.21413,1.74943 0.21378,2.64654 0.005,0.89606 -0.0755,1.79846 -0.17427,2.75026 0.54222,-0.79093 0.883,-1.7138 1.05904,-2.667 0.17709,-0.95215 0.17286,-1.95333 0.0166,-2.90583 m -7.35154,-0.3676 c 0.63853,-1.52823 1.01247,-3.20534 1.12113,-5.03237 0.0155,-0.26071 0.036,-0.51083 0.0621,-0.75001 0.0282,-0.248 0.0515,-0.49671 0.0713,-0.74648 0.0303,-0.3817 0.0656,-0.75494 0.10618,-1.11971 0.12665,-1.13101 0.17604,-2.26625 0.14817,-3.40607 -7e-4,-0.01 -0.005,-0.0589 -0.0134,-0.14782 -0.0131,-0.13229 0.0303,-0.18415 0.12946,-0.15557 0.0349,0.0102 0.0639,0.0402 0.0773,0.0808 0.23425,0.71049 0.59726,1.9431 1.08938,3.69711 0.2226,0.79375 0.31785,1.52541 0.28646,2.19533 -0.002,0.0423 0.0127,0.0497 0.0427,0.0222 0.15064,-0.13546 0.25365,-0.30585 0.30868,-0.51152 0.0589,-0.22155 0.11289,-0.4438 0.16334,-0.66711 0.5341,-1.43016 0.93204,-2.92135 1.06856,-4.48098 0.0709,-0.9211 0.06,-1.86761 -0.11218,-2.79506 -0.14781,-0.93345 -0.44909,-1.82139 -0.78634,-2.67793 -0.6851,-1.71592 -1.60867,-3.265316 -2.40665,-4.84188 -0.39476,-0.789869 -0.78881,-1.580444 -1.08197,-2.408766 -0.30092,-0.826206 -0.52211,-1.682045 -0.6537,-2.580217 -0.11571,0.898525 -0.0536,1.825978 0.11924,2.729089 0.17004,0.906992 0.47519,1.776236 0.8061,2.625019 0.66922,1.697214 1.52435,3.276955 2.16923,4.897265 0.44732,1.07773 0.76588,2.17381 0.93133,3.30235 -0.33725,-1.27776 -0.90734,-2.49273 -1.71485,-3.6449 -0.38065,-0.54187 -0.68792,-0.89782 -0.92181,-1.06821 -0.97578,-0.70838 -1.97062,-1.423107 -2.98379,-2.144185 -0.18345,-0.130528 -0.23319,-0.09137 -0.14923,0.117475 0.40887,1.01565 0.70732,2.05987 0.8957,3.13302 0.139,0.79445 0.17886,1.60584 0.11995,2.43417 -0.0596,0.82373 -0.17745,1.74201 -0.35349,2.75448 -0.30938,1.77483 -0.56444,3.53942 -0.76623,5.29414 -0.0148,0.12418 -0.0522,0.13194 -0.11253,0.0233 l -1.65453,-2.97145 c -0.0286,-0.0522 -0.0501,-0.049 -0.0649,0.009 -0.0684,0.266 -0.12347,0.53764 -0.1651,0.81492 -0.054,0.35983 -0.1143,0.62724 -0.18098,0.80292 -0.22189,0.57997 -0.56197,1.11408 -1.01953,1.60197 -0.0356,0.0374 -0.0892,0.0526 -0.1397,0.0392 -0.2928,-0.0765 -0.54468,-0.21767 -0.75635,-0.42228 -0.008,-0.007 -0.0166,-0.0131 -0.0265,-0.0166 -0.005,-0.002 -0.009,0.001 -0.0134,7.1e-4 -0.01,-0.001 -0.0173,-7.1e-4 -0.0268,0.002 -0.01,0.002 -0.0169,0.005 -0.0254,0.0109 -0.004,0.003 -0.009,0.002 -0.012,0.005 -0.007,0.008 -0.0134,0.0169 -0.0169,0.0272 -0.43392,1.24601 -0.88583,2.43769 -1.35502,3.57611 -0.79304,1.92299 -1.75472,3.75602 -2.88537,5.4998 -0.0459,0.0691 -0.0286,0.0684 0.0511,-0.003 2.54141,-2.25636 5.13645,-4.48133 7.78475,-6.67455 0.10301,-0.0847 0.15734,-0.0607 0.16369,0.0723 0.0811,1.72014 -0.0265,3.43852 -0.32174,5.15584 -0.002,0.007 -0.0402,0.29599 -0.11606,0.86784 -0.0571,0.42827 -0.17251,0.85584 -0.34643,1.28235 -0.0293,0.0734 -0.005,0.10265 0.0723,0.0871 0.12171,-0.0247 0.22684,-0.0741 0.3168,-0.14817 0.0864,-0.0713 0.13123,-0.1083 0.13476,-0.11148 1.36102,-0.98637 2.34209,-2.1978 2.94322,-3.63467 m -4.26261,9.3518 c -0.0674,-0.56798 -0.21519,-1.16382 -0.44309,-1.78788 -0.25435,-0.70168 -0.56621,-1.37689 -0.93592,-2.02531 -0.0466,-0.0808 -0.0836,-0.11147 -0.11042,-0.0921 -0.0596,0.0423 -0.0847,0.11818 -0.0624,0.18733 0.266,0.83326 0.32738,1.61149 0.1838,2.33504 -0.21625,1.09255 -0.71191,2.21509 -1.48696,3.36797 -0.0226,0.0342 -0.0413,0.0317 -0.055,-0.007 -0.37924,-1.10631 -1.13982,-1.90676 -2.28106,-2.40101 -0.005,-0.002 -0.0106,-0.004 -0.0159,-0.004 -0.0236,-7.1e-4 -0.0434,0.018 -0.0444,0.0413 -0.0275,1.12466 -0.10442,2.21298 -0.22966,3.26637 -0.001,0.007 -0.006,0.10266 -0.0148,0.28504 -0.008,0.1584 -0.0508,0.31398 -0.12735,0.46638 -0.072,0.14358 -0.17251,0.16792 -0.30233,0.0723 -0.54681,-0.40041 -0.99307,-0.90558 -1.34021,-1.51518 -0.1598,-0.28152 -0.34713,-0.50836 -0.56268,-0.68016 -0.0325,-0.0272 -0.0448,-0.0198 -0.0367,0.0219 0.006,0.0314 0.01,0.0628 0.0155,0.0945 -0.46602,3.01766 -2.01048,5.5245 -3.3729,8.22078 -0.68439,1.35431 -1.31022,2.77565 -1.67605,4.29083 -0.36301,1.50248 -0.4505,3.13655 0.043,4.59388 -0.0205,-1.52788 0.30797,-2.96404 0.80856,-4.34023 0.50024,-1.3776 1.15817,-2.70051 1.83198,-4.03507 0.67592,-1.33915 1.35749,-2.71251 1.84185,-4.18077 0.27341,-0.8315 0.47943,-1.70392 0.56515,-2.58128 -0.0138,0.31045 -0.0194,0.53905 -0.0155,0.68333 0.0561,2.45851 0.0536,4.91632 -0.008,7.37341 -0.006,0.2279 0.0275,0.28575 0.10019,0.17392 0.0198,-0.0293 0.0332,-0.0667 0.0402,-0.11147 0.29528,-1.6697 0.96062,-3.17606 1.99461,-4.51803 0.43779,-0.56727 1.0033,-0.81562 1.69756,-0.74542 1.38571,0.1397 1.96039,0.90417 1.72473,2.29341 -0.008,0.0466 -0.012,0.0878 -0.0102,0.12382 0.009,0.23707 0.0667,0.2406 0.17287,0.01 0.34501,-0.75142 0.6671,-1.51165 0.96661,-2.28106 0.42933,-1.10208 0.70449,-1.87043 0.8262,-2.3047 0.22402,-0.80433 0.34819,-1.62595 0.37183,-2.46556 0.0215,-0.74507 0.004,-1.35326 -0.0526,-1.82492 m -14.26575,-3.51731 c 0.92251,-1.69369 1.54587,-3.56164 1.82562,-5.48287 0.28011,-1.92158 0.21449,-3.88973 -0.18732,-5.77603 -0.40358,-1.88384 -1.13101,-3.69817 -2.20557,-5.26345 0.65053,1.77941 1.11125,3.58281 1.32892,5.4102 0.21942,1.82457 0.20849,3.66395 -0.0529,5.467 -0.043,0.29528 -0.0949,0.58949 -0.15099,0.88336 -0.0109,-0.34326 -0.0321,-0.68722 -0.0709,-1.03258 -0.19896,-1.77483 -0.89006,-3.33834 -2.07327,-4.69089 -0.28293,-0.32315 -0.6029,-0.65758 -0.95921,-1.00365 -0.40569,-0.39229 -0.7694,-0.68016 -1.09184,-0.8629 -0.62512,-0.35489 -1.25201,-0.70697 -1.88101,-1.05586 -0.4886,-0.27094 -0.83326,-0.65511 -1.034,-1.15288 -0.16545,-0.41028 -0.22083,-0.89888 -0.1651,-1.46509 0.0953,-0.97472 0.48719,-1.83903 1.17617,-2.59186 0.35771,-0.39158 0.73518,-0.71261 1.12888,-0.97754 -0.0402,0.0497 -0.0822,0.0977 -0.12065,0.14852 0.26212,-0.19474 0.53235,-0.36866 0.8054,-0.53376 0.0914,-0.0423 0.18097,-0.0914 0.27375,-0.1277 1.06469,-0.41557 1.98226,-0.82162 2.75731,-1.21814 0.62266,-0.21132 1.25413,-0.40605 1.88878,-0.60431 1.00929,-0.31362 2.03376,-0.641 3.04165,-1.0795 1.00541,-0.43709 1.97061,-0.97579 2.87478,-1.610079 1.80058,-1.268589 3.35492,-2.966861 4.30319,-4.980517 0.5782,-1.217789 0.9398,-2.550936 1.01776,-3.880556 0.048,0.635706 0.0924,1.267531 0.12347,1.897945 0.0741,1.394883 0.10654,2.780594 0.0854,4.166658 -0.0208,1.385712 -0.0945,2.770012 -0.2099,4.162069 -0.11077,1.39348 -0.28117,2.78765 -0.4251,4.2291 0.70697,-1.26682 1.18639,-2.64442 1.52224,-4.05447 0.33196,-1.41182 0.50271,-2.863146 0.52387,-4.315885 0.0201,-1.452739 -0.10795,-2.908653 -0.39828,-4.329642 -0.29457,-1.418872 -0.73308,-2.809522 -1.40088,-4.097514 0,7.06e-4 3.5e-4,0.0014 3.5e-4,0.0021 -0.0123,-0.05433 -0.0222,-0.109361 -0.0356,-0.163336 -0.0861,2.135011 -0.73978,4.128558 -1.78329,5.860697 -1.04105,1.732492 -2.48568,3.183114 -4.13703,4.350809 -0.82832,0.581378 -1.70638,1.098903 -2.62255,1.548691 -0.43321,0.21343 -0.87912,0.4124 -1.33209,0.60749 0.39829,-0.4565 0.75389,-0.955678 1.06574,-1.499309 0.65123,-1.13665 1.08197,-2.344208 1.29364,-3.622675 0.0914,-0.548922 0.15169,-1.063272 0.18203,-1.541992 0.03,-0.461786 0.0335,-0.979311 0.01,-1.552928 -0.036,-0.878769 -0.10054,-1.791053 -0.19473,-2.737555 -0.0187,-0.192617 -0.0974,-0.221898 -0.23601,-0.08819 -0.19685,0.189442 -0.35736,0.378531 -0.48225,0.567972 -0.89111,1.345142 -1.772,2.696987 -2.64336,4.055534 -0.16298,0.254 -0.3369,0.497769 -0.51752,0.735189 -1.0601,0.883708 -2.21369,1.579033 -3.43571,2.106436 -1.50636,0.649817 -3.09209,1.061509 -4.71875,1.271764 -1.63478,0.21837 -3.35492,0.283986 -5.08353,0.629709 -0.86184,0.172861 -1.71944,0.422275 -2.52836,0.787395 -0.80504,0.36619 -1.56669,0.85126 -2.16217,1.48555 1.55398,-0.77364 3.18981,-1.04493 4.84434,-1.17298 1.65629,-0.12524 3.36303,-0.0995 5.11528,-0.33091 0.26105,-0.03387 0.52176,-0.07726 0.7814,-0.125589 -1.02094,0.381709 -1.90535,0.783869 -2.65218,1.205799 -0.63465,0.35912 -1.12642,0.85725 -1.47567,1.49436 -0.24977,0.4572 -0.41169,0.8883 -0.48578,1.29364 -0.0847,0.46602 -0.0511,0.93839 0.1016,1.41711 0.22578,0.70908 0.53199,1.38183 0.91758,2.01824 0.0882,0.14428 0.3309,0.57362 0.72848,1.28834 0.1704,0.30551 0.25718,0.60819 0.26035,0.90946 0.004,0.38242 0.007,0.57715 0.008,0.58385 0.17674,1.61784 0.50553,3.13937 0.98637,4.56459 0.36124,1.06892 0.6283,2.09233 0.80116,3.07058 0.0427,0.23918 0.0794,0.56445 0.11006,0.97649 0.0328,0.43568 0.0734,0.762 0.12136,0.9779 0.0473,0.21202 0.0134,0.26529 -0.1016,0.1591 -0.0268,-0.0254 -0.0501,-0.0586 -0.0699,-0.10019 -0.83361,-1.74695 -2.08351,-3.05329 -3.74967,-3.91971 -0.65264,-0.33972 -1.24707,-0.57573 -1.78294,-0.70873 -0.63007,-0.15663 -1.27777,-0.20073 -1.9431,-0.13229 -0.6537,0.067 -1.30705,0.13511 -1.95968,0.20426 -0.12489,0.013 -0.12489,0.0335 0,0.0614 0.97084,0.21378 1.80481,0.66322 2.50154,1.34867 0.0106,0.01 0.13829,0.12982 0.38312,0.35948 0.16722,0.15769 0.31397,0.33302 0.44062,0.52634 0.0219,0.0342 0.0127,0.0505 -0.0282,0.048 -0.40817,-0.0272 -0.81527,-0.0222 -1.22132,0.0145 -0.64311,0.0579 -0.96767,0.0871 -0.97296,0.0871 -1.27141,0.0864 -2.528,0.26317 -3.77084,0.52952 -1.3141,0.28328 -2.06975,0.43427 -2.26625,0.45297 -0.863948,0.084 -1.674631,0.0303 -2.431693,-0.16157 -1.236133,-0.31398 -2.331861,-0.5334 -3.288242,-0.65829 -0.95638,-0.12488 -2.164291,-0.22648 -3.623733,-0.3048 -0.0049,0 -0.112889,-0.01 -0.324556,-0.0293 -0.20708,-0.0198 -0.424039,-0.01 -0.650875,0.0293 -0.09807,0.0166 -0.123119,-0.0191 -0.07585,-0.10654 0.06844,-0.127 0.143933,-0.24624 0.226131,-0.35701 0.07761,-0.10371 0.179211,-0.20038 0.305152,-0.29033 0.642056,-0.46179 1.340203,-0.81633 2.094795,-1.06469 0.370769,-0.12135 0.739775,-0.17109 1.107722,-0.14922 0.182739,0.0106 0.196145,-0.0317 0.04057,-0.12735 -0.28187,-0.17216 -0.583142,-0.27694 -0.904875,-0.31433 -0.344664,-0.0409 -0.52317,-0.0621 -0.534459,-0.0639 -1.742016,-0.28046 -3.302353,0.0437 -4.682419,0.97296 -1.108428,0.74824 -2.031295,1.79388 -2.767895,3.13655 -0.07338,0.133 -0.166511,0.36124 -0.279047,0.68403 -0.01517,0.0427 -0.04022,0.0759 -0.0702,0.0931 -0.06315,0.0374 -0.130528,0.0441 -0.200378,0.0198 -0.0321,-0.0102 -0.04974,-0.0473 -0.04057,-0.0847 0.05045,-0.20214 0.08608,-0.4064 0.106539,-0.61312 0.178505,-1.76213 0.508352,-3.49497 0.988836,-5.19854 0.441325,-1.56421 0.709436,-3.15665 0.804333,-4.77767 0.01129,-0.19085 0.03422,-0.35101 0.0695,-0.47977 0.04657,-0.17392 0.1016,-0.32668 0.165453,-0.45897 0.250472,-0.51717 0.591961,-1.16487 1.025172,-1.94204 0.291395,-0.52388 0.45967,-1.10102 0.504473,-1.73179 0.0441,-0.62477 -0.03281,-1.20614 -0.230364,-1.74413 -0.264231,-0.71861 -0.717903,-1.28341 -1.360664,-1.69474 -0.821972,-0.5267 -1.673578,-0.91617 -2.551995,-1.18005 1.728259,0.22155 3.412067,0.19932 5.046839,0.3228 1.654881,0.12805 3.290359,0.39934 4.844345,1.17298 -0.595489,-0.63429 -1.357136,-1.11936 -2.162175,-1.48555 -0.808919,-0.36512 -1.666522,-0.614534 -2.528358,-0.787395 -1.728612,-0.345723 -3.448403,-0.411339 -5.083529,-0.629709 -1.626658,-0.210255 -3.212394,-0.621947 -4.718403,-1.271764 -1.429455,-0.616655 -2.765072,-1.461558 -3.96628,-2.572103 -0.0053,-0.0085 -0.01129,-0.01623 -0.01729,-0.02469 -0.681919,-1.006828 -1.537405,-2.448278 -2.566105,-4.323998 -0.130528,-0.237066 -0.285397,-0.458964 -0.46355,-0.665691 -0.03951,-0.04375 -0.06209,-0.03669 -0.06879,0.02223 -0.07832,0.655814 -0.159808,1.313744 -0.244828,1.973791 -0.08396,0.651228 -0.139347,1.267531 -0.1651,1.849262 -0.0441,1.004358 -0.05997,1.622777 -0.04798,1.855258 0.04763,0.895703 0.09878,1.477081 0.153106,1.744134 0.07091,0.344311 0.219781,0.841727 0.44697,1.492955 0.207786,0.597253 0.407458,1.075972 0.598311,1.43651 0.261055,0.49283 0.564091,0.9458 0.904875,1.36137 -0.03634,-0.0169 -0.07479,-0.0325 -0.111125,-0.0497 -0.936625,-0.44626 -1.841148,-0.95426 -2.687814,-1.540227 -1.69545,-1.163814 -3.186289,-2.621844 -4.25697,-4.375855 -1.073856,-1.752953 -1.747309,-3.779309 -1.830564,-5.949951 -0.01341,0.05539 -0.02399,0.111478 -0.03598,0.166864 0,-0.0018 0,-0.0035 3.52e-4,-0.0056 -0.667455,1.287991 -1.105605,2.678994 -1.400175,4.097867 -0.290689,1.420988 -0.4191,2.87655 -0.398286,4.329289 0.02046,1.452739 0.191558,2.904423 0.52317,4.316233 0.335844,1.4097 0.815622,2.7873 1.522589,4.05413 -0.144287,-1.44146 -0.314325,-2.83528 -0.42545,-4.22911 -0.115359,-1.3917 -0.188737,-2.776003 -0.20955,-4.162067 -0.02152,-1.385711 0.01129,-2.771775 0.08502,-4.166306 0.0321,-0.638881 0.07726,-1.278467 0.125589,-1.922286 0.07832,1.373011 0.458964,2.749903 1.067858,4.002617 0.982486,2.039761 2.586214,3.743678 4.433359,5.007332 0.923572,0.63782 1.915936,1.16628 2.942167,1.59878 1.037872,0.43498 2.093736,0.73378 3.129492,1.02094 0.663575,0.18451 1.322916,0.3616 1.973086,0.55598 0.329142,0.10971 0.660047,0.21555 0.991658,0.31821 0.03104,0.0106 0.06244,0.0201 0.09349,0.031 0.993423,0.34219 1.944159,0.78775 2.821164,1.4224 0.187325,0.17145 0.352425,0.35701 0.489656,0.56162 0.3556,0.53093 0.609247,1.10666 0.760942,1.72685 0.144639,0.59231 0.158044,1.10807 0.04057,1.54693 -0.140405,0.52105 -0.43815,0.97402 -0.893586,1.35819 -0.5588,0.47096 -1.073856,0.889 -1.545519,1.25448 -0.819151,0.63465 -1.331737,1.05375 -1.538112,1.25695 -0.806097,0.79304 -1.420283,1.67922 -1.842205,2.65924 -0.563034,1.30704 -0.807862,2.71039 -0.735189,4.20969 0.01199,0.25541 0.03034,0.51612 0.05362,0.78141 -0.225425,-0.81492 -0.40252,-1.64148 -0.523875,-2.47615 -0.261408,-1.80305 -0.271992,-3.64243 -0.05256,-5.467 0.217664,-1.82739 0.678392,-3.63079 1.328561,-5.4102 -1.074561,1.56528 -1.801636,3.37961 -2.205567,5.26344 -0.401461,1.88631 -0.46743,3.85446 -0.187325,5.77604 0.279753,1.92122 0.903464,3.78918 1.825625,5.48287 0.776817,1.42276 1.76142,2.73015 2.931937,3.82235 0.02575,0.39547 0.04763,0.79058 0.06385,1.18569 0.0254,0.60854 0.06738,1.06715 0.126294,1.37548 0.190147,1.01247 0.564092,2.01824 1.122186,3.01801 0.54222,0.97085 1.225903,1.86831 2.049992,2.69205 1.001889,1.00118 2.092325,1.85561 3.272367,2.56293 0.61595,0.36936 1.22555,0.66569 1.828447,0.8883 0.61595,0.2286 1.268589,0.41663 1.958975,0.56444 0.900642,0.19262 1.655939,0.33232 2.265187,0.41981 0.0053,7e-4 0.01023,3.5e-4 0.01482,-3.6e-4 0.0039,-7e-4 0.0056,-0.004 0.0092,-0.006 0.0053,-0.002 0.0095,-0.005 0.01376,-0.008 0.0042,-0.005 0.0064,-0.008 0.0085,-0.0141 0.0014,-0.003 0.0049,-0.005 0.0056,-0.008 7.05e-4,-0.005 7.05e-4,-0.01 -3.53e-4,-0.0145 -0.02222,-0.10866 -0.0829,-0.18803 -0.182386,-0.23883 -0.83185,-0.42086 -1.502833,-0.99519 -2.011892,-1.72297 -1.331383,-1.90676 -2.148064,-4.01355 -2.450042,-6.32107 -0.0187,-0.14182 -0.0448,-0.28963 -0.07832,-0.44309 -0.04057,-0.19156 -0.06562,-0.34043 -0.07479,-0.44662 -0.0194,-0.23071 0.04833,-0.26035 0.2032,-0.0878 1.125361,1.24566 2.4257,1.93569 3.901722,2.07046 0.336903,0.0303 0.686859,0.0727 1.049867,0.12735 0.155928,0.0236 0.174272,-0.0159 0.05539,-0.11853 -0.342194,-0.2974 -0.645583,-0.64241 -0.910519,-1.03541 -0.517525,-0.76694 -1.001184,-1.55398 -1.451681,-2.36079 -0.201436,-0.36054 -0.397933,-0.86113 -0.588786,-1.50177 -0.115711,-0.38841 -0.178153,-0.75883 -0.187325,-1.11125 -0.0046,-0.20391 0.02611,-0.57432 0.09313,-1.11125 0.07761,-0.62724 0.193675,-1.24778 0.347486,-1.86126 0.168981,-0.6731 0.30092,-1.11266 0.395464,-1.31939 0.211314,-0.45826 0.530225,-0.80928 0.957086,-1.05234 0.454378,-0.25859 0.931334,-0.46496 1.430514,-0.61912 1.191331,-0.36901 2.408062,-0.58597 3.650898,-0.65123 0.118533,-0.006 0.351014,0.003 0.69603,0.0282 0.233187,0.0173 0.466725,0.0106 0.700264,-0.0198 0.02752,-0.003 0.05539,-0.002 0.0829,0.001 0.522111,0.0769 0.956028,0.0984 1.300693,0.0649 0.31609,-0.031 0.4759,-0.0469 0.48013,-0.0476 1.40053,-0.0579 2.788,0.0522 4.16207,0.3302 1.01812,0.20637 1.86302,0.50059 2.53436,0.88265 0.49671,0.28293 0.84384,0.58878 1.04034,0.91757 0.47731,0.79975 0.81033,1.72897 0.99977,2.78765 0.10689,0.60149 0.16828,1.06927 0.1838,1.40371 0.0219,0.4833 -0.0289,0.95602 -0.15311,1.41852 -0.12629,0.47413 -0.39193,1.11407 -0.79657,1.92017 -0.5722,1.13665 -1.32574,2.14912 -2.26201,3.03741 -0.03,0.0279 -0.0254,0.0356 0.0138,0.0233 0.77611,-0.24377 1.39876,-0.36019 1.86866,-0.3489 0.46038,0.0109 0.88054,-0.10866 1.26154,-0.35842 0.87912,-0.5768 1.71626,-1.21956 2.51178,-1.92864 0.0829,-0.0744 0.11112,-0.0575 0.0843,0.0501 -0.35666,1.44004 -0.77153,2.86738 -1.2446,4.28202 -0.25542,0.76306 -0.50483,1.38007 -0.74789,1.85173 -0.30692,0.59549 -0.66111,1.16311 -1.06222,1.70216 -0.33231,0.44732 -0.57009,0.74506 -0.71367,0.89358 -0.26775,0.27728 -0.57855,0.50518 -0.93345,0.68404 -0.0836,0.0423 -0.11077,0.0825 -0.0822,0.121 0.0183,0.0251 0.0593,0.0367 0.10654,0.0307 1.61361,-0.20461 3.16442,-0.75847 4.65173,-1.66052 1.87466,-1.13736 3.47169,-2.47791 4.79108,-4.02167 1.47566,-1.72791 2.22214,-3.73803 2.23802,-6.03074 0,-0.007 -0.003,-0.0617 -0.01,-0.16263 -0.0113,-0.18838 0.0508,-0.37853 0.18591,-0.56938 3.5e-4,-3.5e-4 3.5e-4,-3.5e-4 7.1e-4,-7.1e-4 1.23296,-1.1176 2.26271,-2.47544 3.07022,-3.95464 m -2.88043,18.16736 c -0.26388,1.27247 -0.46919,2.52906 -0.69603,3.7786 -0.22331,1.24919 -0.45191,2.49096 -0.6992,3.72921 -0.2466,1.23861 -0.51047,2.47333 -0.78247,3.71299 -0.26846,1.24107 -0.55915,2.48038 -0.8008,3.75779 0.68157,-1.10843 1.21003,-2.29447 1.65453,-3.51014 0.44097,-1.21744 0.78352,-2.47015 1.03611,-3.7405 0.25188,-1.27036 0.4138,-2.55905 0.47201,-3.85234 0.0543,-1.29293 0.0205,-2.59115 -0.18415,-3.87561 M 114.541,141.4867 c -0.005,-0.0667 -0.0275,-0.0734 -0.0674,-0.0194 -0.1584,0.21449 -0.33091,0.39229 -0.51788,0.5334 -0.56515,0.4251 -1.02412,0.94474 -1.37654,1.55928 -0.55492,0.9659 -1.06962,1.95262 -1.54446,2.96016 -0.59726,1.26717 -0.89676,1.90288 -0.89853,1.90676 -0.53481,1.08761 -1.08796,2.16711 -1.65805,3.23815 -0.0709,0.13405 -0.0409,0.16298 0.0907,0.0871 0.623,-0.35912 1.21285,-0.77858 1.76918,-1.25835 0.54927,-0.47379 1.05904,-0.98355 1.53,-1.52859 1.24883,-1.44568 2.08703,-3.12455 2.51354,-5.03696 0.16827,-0.75318 0.22119,-1.56669 0.15945,-2.44158 m -9.20538,4.953 c -0.019,0.31151 -0.13617,0.72849 -0.35137,1.2506 -0.0155,0.0381 -0.0483,0.0635 -0.0832,0.0649 -0.1076,0.006 -0.17921,-0.0423 -0.21555,-0.1457 -0.15557,-0.44379 -0.39793,-0.83925 -0.72707,-1.18603 -0.10019,-0.10513 -0.15099,-0.0847 -0.15275,0.0614 -0.006,0.5521 -0.16651,1.06786 -0.4819,1.54693 -0.009,0.0134 -0.0208,0.0236 -0.0328,0.0335 -0.008,0.007 -0.0166,0.012 -0.025,0.0166 -0.008,0.005 -0.0162,0.009 -0.0254,0.0117 -0.009,0.003 -0.0176,0.005 -0.0272,0.006 -0.009,0.001 -0.018,0.002 -0.0272,0.001 -0.009,-7e-4 -0.0176,-0.002 -0.0261,-0.005 -0.009,-0.002 -0.0183,-0.006 -0.0268,-0.01 -0.0131,-0.007 -0.0258,-0.0138 -0.0363,-0.0247 l -0.66075,-0.69638 c -0.0106,-0.0109 -0.0236,-0.0194 -0.0381,-0.0247 -0.005,-0.002 -0.009,0.001 -0.0134,0 -0.012,-0.002 -0.0215,-0.001 -0.0332,7.1e-4 -0.0116,0.002 -0.0212,0.004 -0.0307,0.01 -0.004,0.002 -0.009,10e-4 -0.0123,0.004 -0.0109,0.009 -0.0183,0.0212 -0.0229,0.0349 -0.0536,0.16298 -0.1203,0.31926 -0.19932,0.46849 -0.0931,0.17709 -0.19121,0.29492 -0.29492,0.35384 -0.11254,0.0635 -0.23284,0.0751 -0.36125,0.0353 -0.091,-0.0275 -0.17921,-0.0967 -0.26423,-0.20672 -0.25506,-0.33373 -0.47201,-0.6985 -0.65087,-1.09397 -0.0473,-0.10548 -0.0875,-0.10266 -0.12136,0.008 -0.0579,0.19015 -0.11395,0.40781 -0.16898,0.65334 -0.0593,0.26917 -0.20108,0.45932 -0.42439,0.57044 -0.09878,0.0487 -0.214488,0.049 -0.313266,0.001 -0.496359,-0.23953 -0.810684,-0.60607 -0.943681,-1.0989 -0.07832,-0.28716 -0.13723,-0.28363 -0.176036,0.0109 -0.04762,0.35172 -0.190853,0.65652 -0.431094,0.9144 -0.179564,0.19332 -0.350309,0.18767 -0.512587,-0.0173 -0.359127,-0.45261 -0.672041,-0.93768 -0.9398,-1.45486 -0.04727,-0.0907 -0.09666,-0.0921 -0.148166,-0.004 -0.118181,0.20144 -0.197909,0.42616 -0.239889,0.67452 -0.05115,0.30268 -0.144286,0.59055 -0.279047,0.86395 -0.0035,0.007 -0.01094,0.0113 -0.01764,0.0152 -0.0046,0.003 -0.0095,0.004 -0.01446,0.005 -0.0053,3.5e-4 -0.01023,0 -0.01517,-0.001 -0.0078,-0.002 -0.01552,-0.004 -0.02117,-0.0106 -0.334434,-0.37782 -0.552803,-0.80362 -0.654756,-1.27776 -0.116417,-0.54645 -0.2286,-1.21743 -0.335492,-2.01295 -0.006,-0.0452 -0.0254,-0.0818 -0.05256,-0.10054 -0.06526,-0.0462 -0.119591,-0.0205 -0.16263,0.0783 -0.285045,0.65193 -0.572911,1.30245 -0.863953,1.95086 -0.380294,0.84702 -0.541867,1.78752 -0.484717,2.82187 0.02293,0.41381 0.117123,0.80327 0.282928,1.16875 0.32385,0.71473 0.764822,1.35643 1.322917,1.92511 0.199672,0.20426 0.440267,0.33302 0.720725,0.387 0.101247,0.0194 0.134408,0.001 0.100189,-0.054 -0.01058,-0.0166 -0.02928,-0.0324 -0.05609,-0.049 -0.128411,-0.0751 -0.228953,-0.20144 -0.30233,-0.37924 -0.170392,-0.40957 -0.238478,-0.79622 -0.2032,-1.16029 0.06138,-0.64135 0.28963,-1.24142 0.685094,-1.80022 0.01058,-0.0148 0.02399,-0.0254 0.03775,-0.0353 0.0088,-0.007 0.0187,-0.0116 0.02857,-0.0162 0.0092,-0.004 0.01835,-0.008 0.02787,-0.0106 0.0099,-0.002 0.02046,-0.003 0.03034,-0.004 0.01023,-7e-4 0.02046,-0.001 0.03069,7.1e-4 0.0099,0.001 0.01905,0.005 0.02857,0.008 0.01023,0.004 0.02046,0.007 0.03034,0.0134 0.01446,0.008 0.02893,0.018 0.04057,0.0314 0.158397,0.18556 0.290336,0.3623 0.396522,0.53129 0.211314,0.33866 0.551039,0.58208 1.019528,0.7306 0.0021,7e-4 0.0046,0.001 0.0071,0.002 0.0085,0.002 0.01623,7.1e-4 0.02434,0.001 0.0099,7.1e-4 0.01905,0.003 0.02857,0.002 0.0088,-0.001 0.01693,-0.005 0.02611,-0.008 0.0085,-0.003 0.01729,-0.005 0.02505,-0.009 0.0081,-0.005 0.01411,-0.0113 0.02117,-0.0169 0.0067,-0.006 0.01446,-0.0109 0.02011,-0.018 0.006,-0.007 0.0092,-0.0162 0.0134,-0.0247 0.0039,-0.007 0.0095,-0.0134 0.01199,-0.0215 7.05e-4,-0.002 0.0014,-0.005 0.0018,-0.007 0.118533,-0.48084 0.320322,-0.92216 0.604661,-1.32433 0.159103,-0.22507 0.345369,-0.26352 0.558094,-0.115 0.138995,0.097 0.303742,0.28927 0.494595,0.57643 0.189441,0.28611 0.41663,0.49989 0.682625,0.64135 0.134756,0.0716 0.239186,0.0409 0.313616,-0.0921 0.15734,-0.27975 0.32103,-0.55457 0.49072,-0.82479 0.21872,-0.34749 0.46531,-0.45227 0.74012,-0.31468 0.12983,0.0663 0.28187,0.22789 0.4565,0.48507 0.27023,0.39864 0.44732,0.63711 0.53128,0.71437 0.2032,0.18697 0.39688,0.23178 0.58103,0.13476 0.10301,-0.054 0.20919,-0.18662 0.31856,-0.39758 0.12382,-0.23848 0.25258,-0.47448 0.38558,-0.70873 0.0187,-0.0332 0.055,-0.0511 0.0903,-0.0451 0.34255,0.0529 0.60325,0.2233 0.78211,0.51152 0.21378,0.34573 0.34396,0.72214 0.39053,1.12819 0.0469,0.42439 0.0681,0.74789 0.0621,0.97049 -0.009,0.34537 -0.11501,0.66675 -0.31821,0.96449 -0.0226,0.0335 -0.0162,0.0413 0.0198,0.0233 0.43215,-0.21555 0.84208,-0.58385 1.22978,-1.10526 1.06786,-1.43827 1.35714,-2.94428 0.86642,-4.51837 -0.11571,-0.37007 -0.30726,-0.84879 -0.57502,-1.43546 -0.21273,-0.46743 -0.45791,-0.92145 -0.73449,-1.36207 -0.14005,-0.22366 -0.20743,-0.20355 -0.20179,0.06 0.0141,0.61595 0.005,1.19909 -0.0279,1.74907 m 2.76896,10.21116 c -0.0871,-0.47802 -0.14182,-0.80328 -0.16369,-0.97543 -0.0416,-0.32632 -0.0903,-0.65194 -0.14676,-0.97649 -7e-4,-0.004 -0.002,-0.007 -0.003,-0.0109 -0.002,-0.004 -0.007,-0.006 -0.01,-0.009 -0.004,-0.005 -0.007,-0.01 -0.0127,-0.013 -0.006,-0.003 -0.0113,-0.003 -0.018,-0.004 -0.004,-3.6e-4 -0.008,-0.004 -0.013,-0.003 -0.004,7.1e-4 -0.007,0.002 -0.0106,0.003 -1.772,0.72848 -2.93617,1.17969 -3.4925,1.35361 -1.38818,0.43215 -2.80705,0.66498 -4.258025,0.69885 -0.200378,0.005 -0.44062,-0.0113 -0.719667,-0.048 -0.239536,-0.0318 -0.480484,-0.0561 -0.722136,-0.0734 -0.455789,-0.0324 -0.813859,-0.0758 -1.073856,-0.12982 -1.888067,-0.38911 -3.695347,-1.02693 -5.421842,-1.91382 -0.0127,-0.006 -0.02611,-0.0102 -0.04022,-0.0116 -0.0078,-3.5e-4 -0.0134,0.006 -0.02081,0.007 -0.01446,0.002 -0.02575,0.005 -0.0381,0.0123 -0.0127,0.007 -0.02152,0.0145 -0.03069,0.0261 -0.0046,0.006 -0.01305,0.007 -0.01658,0.0141 -0.0064,0.0127 -0.01023,0.0261 -0.01129,0.0402 -0.06385,0.82233 -0.164041,1.61396 -0.300919,2.3742 -0.02928,0.15945 -0.04621,0.31221 -0.05045,0.45896 -0.0049,0.15417 -0.0092,0.30904 -0.01341,0.4639 v 3.6e-4 c -3.53e-4,0.01 0.006,0.0176 0.0092,0.0265 0.0032,0.006 0.0028,0.0145 0.0074,0.0197 0.0049,0.006 0.01411,0.006 0.02081,0.0102 0.0078,0.004 0.0134,0.0102 0.02258,0.0106 0.145345,0.007 0.262467,-0.0251 0.351367,-0.0967 0.449439,-0.36406 0.938742,-0.47131 1.468261,-0.32208 0.710848,0.20073 1.382889,0.63006 2.017184,1.28764 0.545041,0.56621 1.141941,1.07032 1.791405,1.51271 0.230012,0.15663 0.464609,0.24835 0.703792,0.27516 0.271639,0.031 0.4953,-0.0677 0.671689,-0.29633 0.38347,-0.49424 0.660753,-1.04916 0.832203,-1.66405 0.05574,-0.20073 0.119239,-0.2032 0.191205,-0.007 0.09208,0.24977 0.206728,0.51894 0.343606,0.80786 0.153453,0.32385 0.313623,0.56656 0.481193,0.72813 0.41204,0.399 0.88864,0.5327 1.43051,0.40111 0.31926,-0.0765 0.71191,-0.30797 1.17828,-0.69356 0.57538,-0.47413 1.12783,-0.97402 1.65841,-1.4993 0.6805,-0.67487 1.46508,-0.98143 2.35338,-0.9204 0.35807,0.0243 0.6297,0.20884 0.81527,0.55315 0.0318,0.0589 0.06,0.0995 0.0843,0.12242 0.0822,0.0765 0.1397,0.0455 0.17109,-0.0942 0.0924,-0.40393 0.0871,-0.88583 -0.0148,-1.44533 m -16.258819,-4.62457 c 0.03387,0.0233 0.04127,0.0176 0.02187,-0.0173 -1.104195,-1.98826 -2.389364,-4.45418 -3.856567,-7.39775 -0.306564,-0.61454 -0.732014,-1.19627 -1.27635,-1.7452 -0.363714,-0.36724 -0.549275,-0.55456 -0.556684,-0.56197 -0.280811,-0.29669 -0.56268,-0.59373 -0.845608,-0.89077 -0.12065,-0.12735 -0.151342,-0.10865 -0.09172,0.0564 0.04586,0.12629 0.07267,0.26282 0.08043,0.40993 0.05009,0.93733 0.195792,1.85596 0.437445,2.7559 0.154516,0.57679 0.390877,1.16311 0.708025,1.75859 0.298803,0.56057 0.620889,1.10737 0.967316,1.64113 0.4191,0.64523 0.938037,1.23754 1.556456,1.77694 0.94862,0.82903 1.900414,1.56704 2.855384,2.21403 m -8.50759,5.63704 c -0.2413,-1.27741 -0.531989,-2.51672 -0.800453,-3.75779 -0.272344,-1.23966 -0.536222,-2.47438 -0.782814,-3.71299 -0.246944,-1.23825 -0.475897,-2.48002 -0.698852,-3.72921 -0.227189,-1.24954 -0.432506,-2.50613 -0.696384,-3.7786 -0.204258,1.28446 -0.238478,2.58268 -0.18415,3.87561 0.05821,1.29329 0.220134,2.58198 0.47237,3.85234 0.252236,1.27035 0.595136,2.52306 1.036108,3.7405 0.4445,1.21567 0.972961,2.40171 1.654175,3.51014 m -7.023806,-15.49189 c -0.365478,-1.51518 -0.991658,-2.93652 -1.676047,-4.29083 -1.260122,-2.49414 -2.674409,-4.82706 -3.248731,-7.55086 -0.01834,-0.15769 -0.0314,-0.31573 -0.05115,-0.47307 -0.0088,-0.0706 -0.03069,-0.11501 -0.06279,-0.13935 -0.0039,-0.0226 -0.0085,-0.0445 -0.012,-0.0674 -0.0028,0.018 -0.0035,0.036 -0.0063,0.054 -0.01411,-0.006 -0.02999,-0.009 -0.04763,-0.008 -0.03351,0.002 -0.0635,0.0321 -0.07444,0.0734 -0.05221,0.19015 -0.147108,0.39758 -0.283986,0.6216 -0.35313,0.57785 -0.709436,1.07032 -1.068564,1.47743 -0.0025,0.003 -0.0056,0.006 -0.0088,0.007 -0.02152,0.0141 -0.05009,0.008 -0.06456,-0.0138 -0.30868,-0.48119 -0.502002,-0.97402 -0.578555,-1.47814 -0.136525,-0.89429 -0.247297,-1.78012 -0.33267,-2.65818 -0.0014,-0.0116 -0.0053,-0.0229 -0.01164,-0.0328 -0.02223,-0.0363 -0.06985,-0.0473 -0.106186,-0.0247 -0.868892,0.53692 -1.534937,1.26647 -1.998487,2.18934 -0.04339,0.0864 -0.08784,0.0868 -0.132997,0.001 -0.259997,-0.4879 -0.504472,-0.96238 -0.734836,-1.42346 -0.402872,-0.8068 -0.598664,-1.65453 -0.587375,-2.54318 7.05e-4,-0.11818 0.02681,-0.38629 0.07726,-0.80398 0.03281,-0.26846 0.05115,-0.53834 0.05503,-0.80998 7.05e-4,-0.0282 -0.0085,-0.0522 -0.02434,-0.0635 -0.01411,-0.0109 -0.02787,-0.013 -0.04163,-0.007 -0.01376,0.006 -0.02575,0.0226 -0.03563,0.0487 -0.257881,0.72532 -0.478367,1.30705 -0.662164,1.7452 -0.539045,1.28729 -0.7747,2.61126 -0.706261,3.97122 0,0.005 -3.53e-4,0.11606 -7.06e-4,0.33408 -0.0018,0.15699 0.01976,0.34784 0.06456,0.57397 0.08184,0.41875 0.158398,0.8375 0.230011,1.25695 0.160867,0.93345 0.425803,1.83515 0.794103,2.7058 0.130175,0.30586 0.505178,1.03505 1.126067,2.18687 0.01976,0.036 0.0321,0.0339 0.03669,-0.006 0.0448,-0.35807 0.09596,-0.71508 0.153105,-1.07068 0.09066,-0.55669 0.334081,-0.97614 0.730603,-1.25836 0.365478,-0.26106 0.798689,-0.36619 1.299634,-0.31574 0.567972,0.0572 1.033639,0.31362 1.396647,0.76976 0.750358,0.94086 1.331031,2.07187 1.74237,3.39372 0.0187,0.0596 0.06244,0.2533 0.13088,0.58138 0.04092,0.19509 0.102658,0.38418 0.186267,0.56762 0.0028,0.007 0.0067,0.013 0.01164,0.0183 0.01835,0.0215 0.04269,0.0272 0.05433,0.0123 0.0099,-0.0138 0.0127,-0.0367 0.0088,-0.0684 -0.0508,-0.37711 -0.08431,-0.85619 -0.100895,-1.43792 -0.04128,-1.518 -0.08608,-3.036 -0.132644,-4.55471 0.05327,0.18415 0.109361,0.36689 0.16898,0.54751 0.484364,1.46826 1.165578,2.84162 1.841853,4.18077 0.673453,1.33456 1.331384,2.65747 1.83127,4.03507 0.500944,1.37619 0.82938,2.81235 0.809272,4.34023 0.493183,-1.45733 0.405695,-3.0914 0.04269,-4.59388 m -8.908542,-22.21042 c 0.861131,0.63394 1.634773,1.35996 2.321631,2.1784 0.0448,0.0529 0.0762,0.0653 0.09454,0.0367 0.01411,-0.0219 0.01164,-0.0607 -0.0063,-0.10054 -0.09631,-0.21837 -0.20955,-0.42792 -0.34043,-0.62759 -1.217789,-1.8662 -2.220736,-3.83823 -3.007784,-5.91715 -0.0441,-0.115 -0.183797,-0.52634 -0.419805,-1.23366 -0.137231,-0.41204 -0.289631,-0.81915 -0.457553,-1.22132 -0.107245,-0.25611 -0.241653,-0.28363 -0.404284,-0.0819 -0.01235,0.0152 -0.02787,0.0261 -0.04374,0.0367 -0.01058,0.007 -0.02152,0.0116 -0.03316,0.0162 -0.01058,0.004 -0.02117,0.008 -0.0321,0.01 -0.01164,0.002 -0.02293,0.002 -0.03457,0.002 -0.01129,0 -0.02293,-7e-4 -0.03457,-0.003 -0.01094,-0.002 -0.02117,-0.006 -0.03175,-0.0106 -0.01164,-0.005 -0.02258,-0.01 -0.03281,-0.0169 -0.01588,-0.0106 -0.03104,-0.0219 -0.04339,-0.0374 -0.70485,-0.89852 -1.252714,-1.89547 -1.643592,-2.9912 -0.07408,-0.20814 -0.149225,-0.20814 -0.225072,0 -0.296334,0.81351 -0.673806,1.61184 -1.133475,2.39501 -0.170392,0.29139 -0.377825,0.48613 -0.623006,0.58385 -0.0078,0.003 -0.01588,7e-4 -0.02364,-7.1e-4 -0.0063,-7e-4 -0.01235,-10e-4 -0.01799,-0.005 -0.0053,-0.003 -0.0088,-0.008 -0.0127,-0.0138 -0.0053,-0.007 -0.01129,-0.0124 -0.0127,-0.0215 -0.199319,-1.21214 -0.351719,-2.43029 -0.457905,-3.65407 -0.06456,-0.74472 -0.1524,-1.48731 -0.264231,-2.22744 -0.222603,-1.47073 -0.335492,-2.71286 -0.339019,-3.72533 -0.0056,-1.4979 0.298802,-2.92171 0.912989,-4.272143 0.03739,-0.0822 0.02152,-0.09419 -0.04763,-0.03563 -0.593725,0.510822 -1.22167,0.975783 -1.882423,1.394173 -0.875947,0.55457 -1.55963,1.16664 -2.049639,1.83551 -0.516467,0.70414 -0.9398,1.55539 -1.270353,2.55411 -0.17533,0.53128 -0.335491,1.16558 -0.479777,1.90288 -0.06526,0.33514 -0.115712,0.64805 -0.155575,0.94509 0,-0.009 -3.53e-4,-0.0187 -3.53e-4,-0.0279 0.0011,-1.74801 0.390525,-3.4036 1.061155,-5.01932 0.644878,-1.62031 1.500012,-3.200046 2.169584,-4.89726 0.330553,-0.848783 0.635705,-1.718027 0.806097,-2.625019 0.172508,-0.903111 0.23495,-1.830564 0.119239,-2.729089 -0.131586,0.898172 -0.352778,1.754011 -0.65405,2.580217 -0.293158,0.828322 -0.686506,1.618897 -1.081264,2.408766 -0.798689,1.576564 -1.721908,3.125965 -2.407356,4.841875 -0.336902,0.85654 -0.638528,1.74449 -0.785989,2.67794 -0.172155,0.92745 -0.183444,1.87395 -0.112183,2.79505 0.161925,1.84927 0.68827,3.60328 1.377245,5.27192 -0.02999,-0.22543 -0.06032,-0.4505 -0.09066,-0.67522 0.09208,0.29492 0.193322,0.58843 0.31115,0.87912 0.01129,0.0296 0.02469,0.0536 0.04022,0.0723 0.06279,0.0758 0.09172,0.0469 0.08678,-0.0868 -0.01552,-0.44379 -0.0064,-0.88653 0.02681,-1.32785 0.02928,-0.39406 0.103716,-0.82938 0.222955,-1.30599 0.265995,-1.06856 0.563387,-2.05457 0.892175,-2.95769 0.01482,-0.0392 0.04057,-0.0614 0.07691,-0.066 0.0088,-10e-4 0.01517,0.005 0.02293,0.008 0.0064,0.003 0.01305,0.005 0.01799,0.01 0.0046,0.006 0.0067,0.0138 0.0095,0.0208 0.0035,0.009 0.0085,0.0166 0.0085,0.0272 -0.0194,0.55069 -0.02646,0.88477 -0.02081,1.00225 0.03246,0.71896 0.173214,1.80939 0.422275,3.27236 0.129469,0.76059 0.237772,1.47744 0.324203,2.15159 0.09243,0.72038 0.190147,1.44004 0.293864,2.15865 0.140053,0.98002 0.396522,1.92793 0.768703,2.8441 0.646641,1.59914 1.693686,2.83386 3.141133,3.70452 0.134056,0.0808 0.169333,0.0494 0.106539,-0.0942 -0.134408,-0.30445 -0.222956,-0.62125 -0.265642,-0.95109 -0.08149,-0.6216 -0.173919,-1.24143 -0.277636,-1.8602 -0.270933,-1.61431 -0.333375,-3.19969 -0.187325,-4.75544 0.01376,-0.14852 0.07197,-0.16863 0.17392,-0.06 1.730375,1.85349 3.608916,3.52601 5.635272,5.01755 m -7.81685,9.58428 c -0.651581,-1.88419 -1.566334,-3.6449 -2.497667,-5.358 -0.929922,-1.70921 -1.860197,-3.3969 -2.603148,-5.16114 -0.743655,-1.76142 -1.283405,-3.60962 -1.395588,-5.57494 -0.03105,0.16651 -0.0508,0.33478 -0.07197,0.50235 -0.02646,-0.10548 -0.05539,-0.21025 -0.08996,-0.31397 -0.168627,0.94192 -0.407105,1.8034 -0.66428,2.68464 -0.255058,0.87841 -0.515408,1.77588 -0.667808,2.72662 -0.156634,0.9525 -0.160514,1.95368 0.01623,2.90583 0.176036,0.9532 0.517173,1.87607 1.059039,2.66701 -0.09878,-0.95181 -0.179211,-1.85421 -0.174272,-2.75027 -3.53e-4,-0.89711 0.07126,-1.766 0.214136,-2.64654 0.117828,-0.74718 0.266347,-1.51271 0.368653,-2.30187 0.124883,0.81774 0.323144,1.62701 0.575381,2.40806 0.612775,1.90006 1.509889,3.67594 2.441927,5.39327 0.931334,1.7138 1.881717,3.39337 2.662062,5.14386 0.781403,1.74872 1.376892,3.57822 1.573036,5.53684 0.282575,-1.95791 -0.09842,-3.98991 -0.745772,-5.86175 m -8.587032,-26.2524 c -0.928864,0.68792 -1.731434,1.52612 -2.44475,2.43276 -0.710495,0.90946 -1.321859,1.89829 -1.829083,2.93722 -0.170709,0.34996 -0.325331,0.70768 -0.472087,1.06857 0.0054,-0.0243 0.0096,-0.049 0.01485,-0.0734 0.382023,-1.86126 0.764434,-3.67101 1.467168,-5.37916 0.340783,-0.85654 0.733425,-1.69263 1.17475,-2.50543 0.447675,-0.80892 0.944034,-1.59208 1.483784,-2.34879 1.030816,-1.461205 2.260247,-2.779889 3.607153,-4.024489 0.06562,-0.04621 0.128411,-0.09419 0.195438,-0.1397 0.161573,-0.109008 0.144992,-0.159103 -0.04904,-0.150283 -0.893233,0.0448 -1.780822,0.115711 -2.661708,0.213077 -0.229306,0.02505 -0.4191,0.06103 -0.569031,0.107598 -0.218016,0.06773 -0.395816,0.147461 -0.533753,0.239889 -0.187677,0.126294 -0.218369,0.09631 -0.09172,-0.09066 0.397934,-0.59302 0.820914,-1.158523 1.268942,-1.696156 0.598664,-0.718608 1.328914,-1.261533 2.189339,-1.627717 0.415572,-0.177094 0.837142,-0.339725 1.265414,-0.488244 0.01658,-0.0056 0.0314,-0.01482 0.04339,-0.02752 0.04339,-0.04374 0.04304,-0.113594 -3.53e-4,-0.155928 -0.05962,-0.06032 -0.150283,-0.113241 -0.271639,-0.158044 -0.713317,-0.267406 -1.459795,-0.491772 -2.239786,-0.6731 -0.07479,-0.01693 -0.08396,-0.05115 -0.02681,-0.102658 0.1143,-0.101953 0.217311,-0.210256 0.309738,-0.324203 0.07267,-0.08925 0.149931,-0.216253 0.232481,-0.382059 0.255058,-0.513997 0.543631,-1.00718 0.865011,-1.47955 0.236714,-0.347486 0.557389,-0.735541 0.962025,-1.163814 0.346075,-0.367947 0.69462,-0.733072 1.046339,-1.095375 0.168981,-0.173566 0.350661,-0.330905 0.545747,-0.470958 0.133703,-0.09701 0.132645,-0.144286 -0.0039,-0.140758 -0.02752,7.05e-4 -0.05927,0.0056 -0.09525,0.01482 -0.5207,0.137584 -1.046339,0.252236 -1.577622,0.343606 -0.262467,0.0448 -0.517173,0.12065 -0.764823,0.226483 -0.257527,0.110067 -0.305152,0.0508 -0.141816,-0.177447 0.18415,-0.259292 0.354541,-0.527403 0.510116,-0.803981 0.204964,-0.363008 0.373592,-0.630414 0.505884,-0.801511 0.654755,-0.851958 1.4097,-1.604433 2.263775,-2.258131 0.259292,-0.198966 0.513292,-0.353483 0.761294,-0.463902 0.27305,-0.122061 0.555978,-0.22225 0.848078,-0.299509 0.157692,-0.04269 0.15875,-0.0896 0.0035,-0.140758 -0.07832,-0.0254 -0.161572,-0.02858 -0.249414,-0.0099 -0.119239,0.02611 -0.18168,0.03951 -0.187325,0.04022 -1.506361,0.206728 -2.883253,0.740128 -4.131734,1.600905 -0.644172,0.443795 -1.150761,0.856898 -1.518708,1.239662 -1.162756,1.211439 -2.226381,2.619022 -3.191581,4.222044 -0.0011,0.0018 -0.153811,0.269523 -0.458611,0.803981 -0.60572,1.059745 -1.323623,2.039056 -2.154061,2.937228 -0.153353,0.165453 -0.293794,0.341489 -0.420829,0.527403 -0.116029,0.16898 -0.0853,0.199672 0.09176,0.09172 0.909743,-0.555625 1.889054,-0.703792 2.938216,-0.444147 0.0021,7.05e-4 0.0046,0.0014 0.0067,0.0025 0.02787,0.01094 0.04092,0.04269 0.02999,0.07091 -0.315031,0.802216 -0.740834,1.817864 -1.277762,3.047294 -0.452613,1.038578 -0.962025,2.006248 -1.528586,2.902656 -0.37278,0.589139 -0.797913,1.115131 -1.274833,1.577622 -0.487962,0.473074 -1.00584,0.913694 -1.553316,1.321854 -0.159173,0.11924 -0.176812,0.20567 -0.05267,0.2593 0.03253,0.0145 0.07345,0.0152 0.115076,0.003 0.739458,-0.21132 1.478492,-0.42299 2.217526,-0.635 0.572594,-0.1651 1.134886,-0.35807 1.686631,-0.57891 0.464608,-0.18627 0.839964,-0.349253 1.146175,-0.493892 -0.370769,0.488242 -0.719667,0.994132 -1.039636,1.519412 -0.501297,0.8375 -0.935567,1.71591 -1.297058,2.62432 -0.36696,0.90593 -0.64382,1.85067 -0.849842,2.80211 -0.202565,0.95215 -0.334186,1.90288 -0.445664,2.85115 -0.209868,1.82668 -0.322721,3.66501 -0.272697,5.50545 -7.06e-4,0.10372 -0.0077,0.20743 -0.0056,0.31186 0.433916,-1.06927 0.828322,-2.11738 1.260898,-3.14502 0.428978,-1.02799 0.88011,-2.03729 1.366238,-3.03036 0.486128,-0.99272 1.005769,-1.96885 1.553633,-2.93829 0.545395,-0.97225 1.129948,-1.92722 1.706034,-2.92735 M 52.900666,46.8588 c 0.05045,0.535164 0.219781,0.987778 0.458611,1.411111 0.239536,0.420864 0.564798,0.800453 0.964495,1.108781 0.402519,0.309033 0.878417,0.540808 1.393825,0.631119 0.510822,0.08855 1.070328,0.04586 1.524,-0.251883 C 56.7911,49.467239 56.453139,49.227703 56.126819,48.982522 L 55.186011,48.261754 C 54.871333,48.019043 54.546777,47.76716 54.17883,47.521979 53.809472,47.278915 53.411538,47.029502 52.900716,46.858757 m 7.964312,39.142461 c 0.697794,-0.546806 1.217436,-1.295047 1.620661,-2.075745 0.402167,-0.785636 0.684742,-1.614664 0.914753,-2.438753 0.229305,-0.825852 0.407105,-1.649589 0.579614,-2.47015 0.170039,-0.823383 0.346428,-1.635125 0.538339,-2.494492 -0.608189,0.643467 -1.036462,1.429456 -1.381831,2.225676 -0.343606,0.800452 -0.596194,1.62313 -0.823383,2.435577 l -0.653698,2.414059 c -0.222955,0.799394 -0.48013,1.580445 -0.794455,2.403828 m 1.15958,-26.70916 c -0.778933,-0.27552 -1.393825,-0.637117 -2.057047,-1.008945 -0.665692,-0.374297 -1.3208,-0.718255 -1.927931,-1.090436 -0.608189,-0.375003 -1.165225,-0.773642 -1.672519,-1.258358 -0.507647,-0.488245 -0.955322,-1.043164 -1.339145,-1.776589 -0.208491,0.813505 0.02328,1.715911 0.458611,2.454275 0.440973,0.747536 1.103137,1.349375 1.815748,1.783292 0.717903,0.437444 1.4859,0.72778 2.263775,0.918986 0.775053,0.188736 1.676753,0.296686 2.458508,-0.02222 m -6.175022,13.892742 c 0.301978,-0.794102 0.538691,-1.571272 0.884061,-2.245077 0.392289,-0.794456 0.889706,-1.54552 1.386769,-2.353381 0.492126,-0.801511 0.994834,-1.681339 1.284464,-2.662414 0.290337,-0.964848 0.371123,-2.081036 -0.05045,-3.002139 -0.176036,0.982133 -0.535164,1.790347 -0.976841,2.577394 -0.436034,0.786695 -0.956381,1.528234 -1.460148,2.349853 -0.498475,0.814564 -0.983897,1.7145 -1.227667,2.723092 -0.141463,0.587022 -0.178858,1.166989 -0.149577,1.738136 -0.006,-0.01446 -0.0099,-0.02999 -0.01623,-0.04445 -0.209903,-0.475897 -0.369711,-0.968022 -0.480131,-1.47708 -0.265994,-1.228725 -0.399697,-2.47262 -0.401461,-3.731331 -3.53e-4,-0.662517 0.136525,-1.833386 0.411339,-3.512256 0.0067,-0.04339 -0.0085,-0.05433 -0.04516,-0.03316 -0.104423,0.06032 -0.174625,0.152753 -0.210609,0.277636 -0.607836,2.121253 -1.087967,4.271081 -1.440392,6.449484 -0.211313,1.308805 -0.2032,2.562931 0.02328,3.763081 0.03104,0.16263 0.105833,0.466372 0.224014,0.91193 0.132291,0.496711 0.192616,0.804686 0.181327,0.923925 -0.01658,0.176036 0.03634,0.19932 0.15875,0.06985 0.06244,-0.06597 0.150284,-0.101953 0.2413,-0.09807 0.511528,0.02222 0.911931,0.260703 1.201914,0.716139 0.225778,0.3556 0.454378,0.710494 0.685095,1.064683 0.02928,0.0448 0.05256,0.04198 0.06844,-0.0088 0.46355,-1.41852 0.980369,-2.826103 1.550811,-4.222045 0.466372,-1.143 1.084086,-2.109611 1.852789,-2.899128 0.03739,-0.03845 0.05891,-0.07232 0.06491,-0.1016 0.01058,-0.0508 -0.01094,-0.05927 -0.06385,-0.02575 -1.092552,0.686153 -2.021064,1.330326 -2.785533,1.932517 -0.277989,0.220134 -0.581025,0.526345 -0.909109,0.917575 -0.0011,0.0011 -0.0014,3.53e-4 -0.0021,0.0014 m 12.696473,9.949746 c -0.0039,-1.000831 0.02081,-1.992137 0.08326,-2.982031 0.06209,-0.989542 0.162631,-1.976261 0.292453,-2.968978 0.126295,-0.994128 0.296334,-1.987198 0.446264,-3.021895 -0.587022,0.867481 -1.003653,1.834798 -1.311628,2.833511 -0.304447,1.000478 -0.486833,2.040114 -0.553508,3.086101 -0.06703,1.045986 -0.01764,2.100439 0.157692,3.131608 0.179211,1.029759 0.470605,2.041878 0.945091,2.976386 -0.01658,-1.045986 -0.05962,-2.052461 -0.05962,-3.054702 M 56.545616,41.647523 c 0.279753,0.657931 0.623712,1.275998 1.017764,1.845381 0.390878,0.575381 0.803981,1.136297 1.246717,1.674989 0.414514,0.502356 0.849136,0.989542 1.336322,1.434395 0.0018,0.0035 0.0042,0.0074 0.006,0.01094 0.01693,0.03845 0.006,0.05009 -0.03316,0.03457 l -2.977797,-1.196975 c -0.04445,-0.0187 -0.05715,-0.006 -0.03634,0.0381 0.146756,0.309033 0.292806,0.611364 0.437797,0.906639 0.178153,0.360539 0.344311,0.651228 0.498122,0.872419 0.864659,1.236134 2.035881,2.087034 3.512256,2.553053 0.149578,0.04727 0.547159,0.106539 1.193448,0.177448 0.04163,0.0039 0.04233,0.01164 0.0025,0.02328 -0.607131,0.171097 -1.291167,0.216605 -2.052108,0.135819 -0.797278,-0.08502 -1.383595,0.139348 -1.758951,0.6731 -0.288572,0.410281 -0.422627,0.950031 -0.401108,1.618898 0.02258,0.711553 0.233186,1.353255 0.631472,1.925108 0.28187,0.407106 0.730603,0.859367 1.344789,1.356078 0.498475,0.403931 1.03752,0.752122 1.616428,1.045281 0.633942,0.320322 1.076678,0.528814 1.328209,0.625122 1.303514,0.497769 2.560108,1.0922 3.769078,1.782939 0.144639,0.08255 0.284691,0.180622 0.421216,0.293864 0.131939,0.111125 0.264584,0.221191 0.397581,0.330553 0.03175,0.02681 0.02752,0.04022 -0.01341,0.04022 -0.252941,0.0011 -0.504119,-0.01588 -0.753886,-0.05009 -0.336903,-0.04657 -0.586669,-0.06315 -0.748947,-0.05009 -0.49142,0.03986 -0.956381,0.164042 -1.395236,0.371828 -0.443089,0.208845 -0.821973,0.457906 -1.137003,0.746478 -0.341136,0.31115 -0.607836,0.688269 -0.8001,1.132064 -0.25647,0.591608 -0.2921,1.149703 -0.106539,1.674283 0.291042,0.82162 0.653697,1.612548 1.087967,2.372784 0.0095,0.01729 0.0071,0.03598 0.0064,0.05398 -7.06e-4,0.0127 -0.0028,0.02469 -0.0078,0.03598 -0.0056,0.01129 -0.01341,0.02011 -0.02293,0.02893 -0.01341,0.01235 -0.02646,0.02611 -0.04586,0.02928 -0.461434,0.08255 -0.910167,0.334433 -1.345847,0.756355 -0.105481,0.101953 -0.123825,0.218017 -0.05503,0.347486 0.06915,0.131234 0.200025,0.254 0.392642,0.367242 0.804333,0.473075 1.676047,0.703439 2.614083,0.691444 0.602192,-0.0074 0.655814,0.06809 0.160162,0.226484 -0.285045,0.09208 -0.546101,0.261055 -0.782814,0.506589 -0.269523,0.279753 -0.408517,0.423686 -0.417337,0.4318 -0.497063,0.481541 -0.903463,1.03258 -1.218847,1.653469 -0.0028,0.0049 -0.0046,0.01058 -0.0049,0.01623 0,0.0025 0.0021,0.0039 0.0025,0.006 7.05e-4,0.0053 0.0025,0.0088 0.0053,0.01341 0.0025,0.0046 0.0046,0.0078 0.0088,0.01094 0.0018,0.0014 0.0021,0.0039 0.0046,0.0053 0.0049,0.0025 0.01058,0.0042 0.01658,0.0046 0.154164,0.0074 0.386292,0.02963 0.696384,0.06738 2.559403,0.310445 4.5974,-0.539397 6.113992,-2.550583 7.05e-4,-7.06e-4 0.0011,-0.0014 0.0018,-0.0025 0.0053,-0.0074 0.0071,-0.01552 0.01094,-0.02364 0.0035,-0.0085 0.0092,-0.01658 0.01129,-0.0254 0.0021,-0.0092 0.0011,-0.01799 0.0014,-0.02716 3.53e-4,-0.0088 0.0021,-0.01764 7.05e-4,-0.02611 -0.0014,-0.0092 -0.006,-0.01693 -0.0092,-0.02575 -0.0028,-0.0081 -0.0042,-0.01693 -0.0092,-0.02469 -0.0046,-0.0078 -0.01235,-0.01376 -0.0187,-0.02081 -0.0056,-0.0063 -0.0099,-0.01376 -0.01729,-0.0194 -7.06e-4,-3.53e-4 -0.0018,-0.0011 -0.0025,-0.0014 -1.090436,-0.786695 -1.893358,-1.78047 -2.408414,-2.981325 -0.189089,-0.443795 -0.277283,-0.839259 -0.26423,-1.185687 0.01729,-0.459669 0.163689,-0.856544 0.439208,-1.190977 0.285044,-0.345017 0.768703,-0.632531 1.451681,-0.862895 0.897466,-0.302683 1.826683,-0.434269 2.78765,-0.395111 0.07761,0.0032 0.08855,-0.02187 0.03316,-0.07585 -1.04775,-1.029759 -1.873956,-2.206273 -2.479675,-3.529542 -0.490714,-1.074561 -0.98037,-2.194631 -1.468261,-3.360561 -0.0194,-0.04657 -0.0053,-0.06068 0.04269,-0.04269 0.630061,0.230717 1.250597,0.374298 1.862666,0.430742 0.242359,0.02293 0.263525,-0.03493 0.0635,-0.173919 -0.371827,-0.256823 -0.727075,-0.5334 -1.065741,-0.829734 -0.353131,-0.306564 -0.682273,-0.612775 -0.986367,-0.917928 -1.418167,-1.417108 -2.3368,-3.125258 -2.756253,-5.124097 -0.0074,-0.03669 -0.03281,-0.06809 -0.06844,-0.08431 -0.893939,-0.407811 -1.716264,-0.996245 -2.466975,-1.764595 -1.369836,-1.402644 -2.522008,-2.657122 -3.457222,-3.764491 -0.900995,-1.067153 -1.934281,-2.082448 -3.10127,-3.045884 -0.201083,-0.166511 -0.301272,-0.195086 -0.305506,-0.09207 -7.05e-4,-0.0018 -0.0018,-0.0032 -0.0025,-0.0046 -0.03492,0.716139 0.156633,1.433689 0.427919,2.091619 m 6.275917,-2.332919 c 1.063273,1.037872 2.154062,2.013656 3.232503,2.998611 l 3.227565,2.946048 3.197225,2.97815 c 1.068916,0.995539 2.129014,2.004483 3.248025,2.981325 C 74.966992,49.941711 74.074464,48.757789 73.120553,47.627136 72.163819,46.4986 71.133708,45.433211 70.0468,44.429558 68.959186,43.425905 67.814069,42.484694 66.612508,41.6218 65.40883,40.76208 64.156821,39.967977 62.821557,39.314633 m 12.889796,19.985568 c -0.887236,-0.251531 -1.749778,-0.571853 -2.604559,-0.998361 -0.0194,-0.02646 -0.04163,-0.05009 -0.06103,-0.07726 0.0053,0.01905 0.01446,0.03775 0.02011,0.0568 -0.118886,-0.05997 -0.238125,-0.114652 -0.356658,-0.179211 0.148166,0.195086 0.313266,0.376414 0.487186,0.549275 0.2032,0.491773 0.506941,0.951442 0.866422,1.354314 0.463903,0.518937 1.005417,0.960967 1.562806,1.352198 1.126419,0.780344 2.271183,1.407583 3.344333,2.141361 1.075973,0.723547 2.095148,1.50495 2.980267,2.427817 0.886883,0.922514 1.640064,1.979436 2.17805,3.21945 -0.07655,-1.359253 -0.674864,-2.681817 -1.497894,-3.791656 -0.829734,-1.119364 -1.899003,-2.033764 -3.030714,-2.792942 -1.128889,-0.768703 -2.359026,-1.359253 -3.509434,-1.957916 -0.517878,-0.275873 -1.025525,-0.565151 -1.501422,-0.898878 0.264583,0.154869 0.536222,0.296686 0.811389,0.424039 1.031522,0.47625 2.115961,0.782461 3.184525,1.037519 1.070681,0.255411 2.132894,0.456495 3.177117,0.70097 1.047044,0.242711 2.069394,0.535516 3.108325,0.954264 -0.778933,-0.814917 -1.799872,-1.379714 -2.838803,-1.800931 -1.045281,-0.421217 -2.124781,-0.700264 -3.185584,-0.9525 -1.062566,-0.252236 -2.111022,-0.475545 -3.13443,-0.76835 m 9.764889,35.128202 c -0.297039,-0.376061 -0.585964,-0.739069 -0.86748,-1.089025 -0.524581,-0.651228 -0.818092,-1.010003 -0.879828,-1.077031 -1.051984,-1.143 -2.375959,-1.68028 -3.972631,-1.611489 -0.447322,0.0187 -0.801864,0.09878 -1.064683,0.240948 -0.352425,0.190147 -0.607484,0.473427 -0.765175,0.850547 -0.117475,0.282222 -0.146403,0.569383 -0.08678,0.861483 0.06032,0.296686 0.188736,0.569031 0.384528,0.816328 0.164747,0.20955 0.408164,0.456495 0.73025,0.740481 0.358422,0.316441 0.737658,0.520347 1.138414,0.611716 0.425803,0.09631 0.856192,0.159456 1.291167,0.189795 0.201789,0.01376 0.44203,0.0039 0.721783,-0.02963 0.240242,-0.02752 0.480131,-0.05115 0.721078,-0.07091 0.333375,-0.02681 0.691092,-0.0762 1.072092,-0.147814 0.504119,-0.09631 1.016353,-0.161219 1.537053,-0.194733 0.07091,-0.0049 0.08431,-0.03528 0.04022,-0.09066 m 0.02328,-11.306528 C 84.522337,82.752171 83.538793,82.398335 82.548898,82.060727 82.24057,81.955599 81.972459,81.873049 81.74527,81.81343 81.505029,81.75099 81.260553,81.74499 81.010787,81.7965 c -0.2286,0.04727 -0.470606,0.108656 -0.727075,0.183445 -0.0032,0.0011 -0.0064,0.0021 -0.0092,0.0039 -0.0049,0.0025 -0.0064,0.0081 -0.01023,0.01164 -0.0046,0.0049 -0.0099,0.0088 -0.01235,0.01517 -0.0028,0.0063 -0.0021,0.01235 -0.0021,0.0194 -3.53e-4,0.0053 -0.0032,0.0099 -0.0018,0.01517 0.0011,0.0035 0.0021,0.0067 0.0039,0.0095 0.151694,0.297039 0.370769,0.530225 0.657225,0.699911 0.468489,0.277283 0.865364,0.631472 1.190978,1.062214 0.02328,0.03104 0.01623,0.04057 -0.02117,0.02822 -0.186619,-0.0635 -0.409928,-0.0949 -0.669572,-0.09419 -0.65652,0.0032 -1.105253,0.01341 -1.345848,0.03069 -1.175808,0.0822 -2.121958,0.584553 -2.838097,1.506361 -0.239889,0.309034 -0.471311,0.704497 -0.693914,1.186039 -0.0194,0.04128 -0.02752,0.07796 -0.02328,0.110067 0.0099,0.08079 0.05927,0.08996 0.148166,0.02822 0.03563,-0.0254 0.07479,-0.03951 0.111125,-0.04057 0.768703,-0.01552 1.643239,0.02328 2.622903,0.116416 0.842787,0.07973 1.639712,0.228248 2.391128,0.445206 0.485423,0.140405 0.951795,0.333022 1.398764,0.57785 0.444148,0.242358 0.871714,0.513292 1.2827,0.812447 0.265995,0.194381 0.568325,0.376767 0.906639,0.547159 0.09208,0.04551 0.19932,0.04586 0.291395,0.0011 0.246944,-0.121356 0.515055,-0.198614 0.804333,-0.23107 0.658284,-0.07444 1.317272,-0.107244 1.97732,-0.09948 0.562328,0.0067 1.065741,0.08431 1.510241,0.232833 0.718609,0.240595 1.356431,0.582437 1.912762,1.025525 0.681214,0.543278 1.420283,1.252362 2.217561,2.126898 0.167922,0.183797 0.336903,0.232128 0.507647,0.144992 0.0021,0.02999 0.0039,0.05962 0.006,0.08996 0.0085,-0.03598 0.01446,-0.07232 0.02258,-0.108303 0.04727,-0.02822 0.09419,-0.06421 0.141817,-0.113242 0.02681,-0.02752 0.04445,-0.06421 0.05009,-0.104069 0.03175,-0.232128 0.02752,-0.4826 -0.0039,-0.747889 0.287514,-1.654881 0.398639,-3.340453 0.38488,-5.024614 -0.02081,-2.050698 -0.243769,-4.102453 -0.646289,-6.117167 -0.403225,-2.014714 -0.98813,-3.993798 -1.75895,-5.894564 -0.773994,-1.898298 -1.716264,-3.729215 -2.900539,-5.397148 0.655814,1.935339 1.299986,3.836459 1.851025,5.760861 0.554567,1.921934 1.033639,3.855862 1.42487,5.808134 0.392289,1.952272 0.696031,3.921478 0.924983,5.908323 0.123825,1.054805 0.219781,2.11455 0.304095,3.180644 -0.108656,-0.405694 -0.206728,-0.7493 -0.293864,-1.026583 -0.32385,-1.030817 -0.811036,-1.961445 -1.460853,-2.792942 -0.426861,-0.545042 -0.963789,-1.031522 -1.610783,-1.459794 -0.804334,-0.533048 -1.662642,-0.969434 -2.574926,-1.309512 -0.03916,-0.01482 -0.04374,-0.0078 -0.0134,0.02081 0.675569,0.640292 1.208264,1.384653 1.598436,2.232025 0.12312,0.269523 0.215547,0.549275 0.276578,0.839612 0.03281,0.1524 -0.0028,0.170391 -0.106539,0.05398 -0.395464,-0.44697 -0.846314,-0.843492 -1.352197,-1.189567 -0.367948,-0.252236 -0.880181,-0.5588 -1.537053,-0.920397 -0.585259,-0.321381 -1.190625,-0.600781 -1.817511,-0.8382 m 9.434689,13.637684 c -0.819503,-0.267053 -1.385006,-0.738011 -1.881717,-1.270353 -0.489303,-0.530225 -0.878064,-1.151467 -1.304572,-1.816453 -0.424392,-0.659342 -0.882297,-1.376186 -1.513064,-1.992136 -0.616656,-0.602545 -1.438628,-1.126067 -2.319161,-1.148998 0.642055,0.574323 1.059391,1.189214 1.453797,1.845734 0.390525,0.650522 0.737658,1.351492 1.190625,2.0574 0.448028,0.696383 1.014589,1.420283 1.795286,1.914172 0.386292,0.2413 0.812448,0.428978 1.261181,0.513998 0.448733,0.07796 0.915811,0.06809 1.317625,-0.103364 m 0.209903,12.508085 c -1.497542,0.42616 -2.943578,1.03929 -4.225573,1.90747 1.509889,-0.32843 2.977092,-0.62688 4.452762,-0.82409 1.472847,-0.20108 2.944989,-0.3175 4.419247,-0.34007 1.474254,-0.0226 2.948874,0.048 4.427364,0.20284 1.48096,0.15064 2.95698,0.40252 4.47675,0.68157 -1.3081,-0.82903 -2.77284,-1.397 -4.28273,-1.77553 -1.51306,-0.375 -3.08045,-0.54469 -4.643609,-0.51964 -1.562805,0.0254 -3.1242,0.24483 -4.624211,0.66745 M 109.5018,91.680588 c -0.63077,0.61595 -1.08868,1.332794 -1.51307,1.992136 -0.42651,0.664986 -0.81491,1.286228 -1.30457,1.816453 -0.49636,0.532342 -1.06221,1.0033 -1.88172,1.270353 0.40217,0.17145 0.8689,0.181327 1.31763,0.103364 0.44909,-0.08502 0.87524,-0.272698 1.26153,-0.513998 0.78035,-0.493889 1.34691,-1.217789 1.79494,-1.914172 0.45332,-0.705908 0.8001,-1.406878 1.19062,-2.0574 0.39476,-0.65652 0.81174,-1.271411 1.45415,-1.845734 -0.88089,0.02293 -1.70286,0.546453 -2.31951,1.148998 m 4.67818,2.818342 c -3.5e-4,0.01164 0.003,0.02081 0.007,0.03175 0.004,0.01094 0.008,0.01976 0.0155,0.02822 0.004,0.0032 0.003,0.0088 0.007,0.01164 0.0113,0.0088 0.0247,0.01446 0.0392,0.01693 1.03047,0.169686 2.02283,0.241653 2.97745,0.215547 0.53516,-0.01482 1.00471,-0.0822 1.40864,-0.202142 0.46814,-0.139347 0.90699,-0.331964 1.31657,-0.577497 0.44556,-0.268464 0.76905,-0.625475 0.97049,-1.071033 0.20884,-0.461786 0.24553,-0.912636 0.10901,-1.353256 -0.17533,-0.566914 -0.60396,-0.918986 -1.28623,-1.056217 -1.24919,-0.250472 -2.34809,0.04762 -3.29671,0.894645 -0.54081,0.482953 -1.01776,1.085497 -1.43087,1.807633 -0.15275,0.265642 -0.28116,0.471311 -0.38558,0.616656 -0.14852,0.205669 -0.29457,0.400755 -0.4378,0.584905 -0.009,0.01164 -0.0148,0.02505 -0.0173,0.03951 -7.1e-4,0.0046 0.003,0.0081 0.003,0.0127 m -9.63542,-8.235598 c -0.0152,1.83268 0.11606,3.667478 0.4639,5.461706 -0.006,0.161219 0.0243,0.303389 0.0882,0.427919 0.0148,0.0695 0.0275,0.138995 0.043,0.208492 0.003,-0.04233 0.006,-0.08396 0.008,-0.125942 0.0123,0.01764 0.0201,0.03704 0.0339,0.05398 0.11466,0.141817 0.24271,0.15487 0.38277,0.03881 0.41733,-0.33902 0.77117,-0.728134 1.06256,-1.166284 0.16581,-0.24765 0.3549,-0.473427 0.56762,-0.676627 0.0847,-0.08079 0.3041,-0.276578 0.65758,-0.587376 0.93486,-0.821619 2.01225,-1.340555 3.2318,-1.556808 0.3108,-0.05539 0.80363,-0.08431 1.47814,-0.08678 0.4953,-0.0018 0.9906,-0.01552 1.4859,-0.04163 0.0399,-0.0014 0.0773,-0.01376 0.11112,-0.03669 1.11584,-0.721431 2.31599,-1.252008 3.60186,-1.592086 0.77823,-0.206375 1.83727,-0.385939 3.17677,-0.538692 0.73342,-0.0829 1.37407,-0.05045 1.92158,0.09807 0.0399,0.01058 0.054,-0.0039 0.0416,-0.04269 -0.18133,-0.56903 -0.4505,-1.002947 -0.80751,-1.302103 -0.61313,-0.512586 -1.38571,-0.800452 -2.3181,-0.864305 -0.71473,-0.04868 -1.58151,-0.04974 -2.60068,-0.0025 -0.01,7.06e-4 -0.0173,-0.0049 -0.0261,-0.0078 -0.008,-0.0028 -0.0187,-0.0032 -0.0251,-0.0081 -0.007,-0.0053 -0.008,-0.0134 -0.0113,-0.02046 -0.004,-0.0071 -0.0109,-0.0127 -0.0109,-0.02117 -0.002,-0.05539 0.0293,-0.101248 0.0931,-0.136878 0.19685,-0.111831 0.38947,-0.229659 0.57891,-0.353836 0.11006,-0.07267 0.2854,-0.214842 0.52634,-0.426862 0.31362,-0.277636 0.6223,-0.451202 0.92499,-0.521758 0.37359,-0.08714 0.42262,-0.188383 0.14675,-0.303036 -0.0903,-0.03845 -0.16051,-0.07091 -0.21061,-0.09701 -0.28046,-0.14993 -0.50412,-0.230717 -0.67027,-0.242005 -0.62019,-0.04269 -1.35326,0.05398 -2.19957,0.28963 -1.92688,0.539397 -3.67454,1.429809 -5.24264,2.670528 -0.66675,0.52705 -1.1684,1.000125 -1.50636,1.419578 -0.0261,0.03245 -0.0409,0.02822 -0.0438,-0.01341 -0.0198,-0.251177 -0.003,-0.444852 0.0512,-0.579966 0.41522,-1.052689 1.0721,-1.9177 1.97027,-2.595739 0.0381,-0.02893 0.0571,-0.06879 0.0466,-0.09666 -0.0124,-0.03281 -0.049,-0.0381 -0.11042,-0.01588 -0.61242,0.227542 -1.20615,0.493889 -1.78047,0.799042 -0.64841,0.345017 -1.17616,0.719667 -1.58256,1.123597 -0.59161,0.588081 -1.08479,1.288345 -1.48061,2.101145 -0.58314,1.197328 -1.0287,2.388659 -1.33985,3.573992 0.1016,-1.390297 0.21555,-2.767542 0.37641,-4.137025 0.22931,-1.986845 0.5327,-3.956051 0.92499,-5.908323 0.39158,-1.952272 0.8703,-3.8862 1.42522,-5.808134 0.55068,-1.924402 1.19486,-3.825522 1.85102,-5.760861 -1.18462,1.667933 -2.12689,3.49885 -2.90089,5.397148 -0.77082,1.900766 -1.35537,3.87985 -1.7586,5.894564 -0.40287,2.014714 -0.62547,4.066469 -0.64628,6.117167 m 10.32185,-23.441312 c 1.03928,-0.418748 2.06163,-0.711553 3.10868,-0.954264 1.04422,-0.244475 2.10643,-0.445559 3.17711,-0.70097 1.06857,-0.255058 2.15265,-0.561269 3.18418,-1.037519 0.27516,-0.127353 0.54715,-0.26917 0.81174,-0.424039 -0.47625,0.333727 -0.98355,0.623005 -1.50178,0.898878 -1.15041,0.598663 -2.38054,1.189213 -3.50908,1.957916 -1.13171,0.759178 -2.20098,1.673578 -3.03106,2.792942 -0.82304,1.109839 -1.42099,2.432403 -1.49755,3.791656 0.53764,-1.240014 1.29082,-2.296936 2.17805,-3.21945 0.88477,-0.922867 1.90395,-1.70427 2.97992,-2.427817 1.07315,-0.733778 2.21791,-1.361017 3.34433,-2.141361 0.55739,-0.391231 1.09926,-0.833261 1.56281,-1.352198 0.35983,-0.402872 0.66322,-0.862541 0.86642,-1.354314 0.17427,-0.172861 0.33902,-0.354189 0.48719,-0.549275 -0.11854,0.06421 -0.23778,0.119239 -0.35631,0.178859 0.006,-0.01905 0.0145,-0.03739 0.0201,-0.05644 -0.0198,0.02716 -0.0413,0.0508 -0.061,0.07726 -0.85478,0.426508 -1.71697,0.746477 -2.60491,0.998361 -1.02306,0.292805 -2.07187,0.516114 -3.13443,0.76835 -1.06045,0.252236 -2.14031,0.531283 -3.18559,0.9525 -1.03857,0.421217 -2.05987,0.986014 -2.8388,1.800931 m 9.1433,-11.603215 c 1.11901,-0.976842 2.1791,-1.985786 3.24802,-2.981325 l 3.19793,-2.97815 3.22686,-2.946048 c 1.0788,-0.984955 2.16958,-1.960739 3.2325,-2.998611 -1.33526,0.653344 -2.58727,1.447447 -3.79095,2.307167 -1.20156,0.862894 -2.34667,1.804105 -3.43394,2.807758 -1.0869,1.003653 -2.11737,2.069042 -3.0741,3.197578 -0.95356,1.130653 -1.84609,2.314575 -2.60632,3.591631 m 7.18114,31.915808 c 0,1.002241 -0.043,2.008716 -0.0596,3.054702 0.47449,-0.934508 0.76588,-1.946627 0.94509,-2.976386 0.17533,-1.031169 0.22437,-2.085622 0.15769,-3.131608 -0.067,-1.045987 -0.24906,-2.085623 -0.55386,-3.086101 -0.30797,-0.998713 -0.72425,-1.96603 -1.31127,-2.833511 0.14993,1.034697 0.31961,2.027767 0.44591,3.021895 0.13017,0.992717 0.23072,1.979436 0.29245,2.968978 0.0624,0.989894 0.0875,1.9812 0.0836,2.982031 m 5.83318,-36.287431 c -0.64805,0.620184 -1.45097,1.075973 -2.40982,1.368426 -0.10442,0.03175 -0.17533,0.128763 -0.17498,0.238477 0.002,0.444853 -0.079,0.906639 -0.24483,1.385359 -0.63253,1.830211 -1.71767,3.330222 -3.25649,4.501092 -0.37924,0.28963 -0.83926,0.555272 -1.37901,0.796925 -0.0646,0.02822 -0.0967,0.07232 -0.0956,0.131939 0,0.0028 3.5e-4,0.006 0.001,0.0088 0.001,0.006 0.007,0.0088 0.0102,0.01411 0.004,0.0064 0.006,0.01235 0.0124,0.01693 0.006,0.0046 0.0134,0.0049 0.0212,0.0067 0.006,0.0018 0.0109,0.0064 0.0176,0.006 0.003,0 0.007,-3.53e-4 0.01,-0.0011 l 1.86761,-0.359833 c 0.20108,-0.03916 0.25294,0.02822 0.15698,0.201789 -0.27375,0.4953 -0.5274,1.020586 -0.76235,1.576211 -0.002,0.0032 -0.13264,0.357011 -0.39335,1.061156 -0.32773,0.889352 -0.79375,1.699683 -1.39735,2.431697 -0.30268,0.366183 -0.51823,0.608189 -0.6477,0.725664 -0.2159,0.198261 -0.48436,0.384175 -0.80504,0.558094 -0.15416,0.08396 -0.17886,0.146403 -0.0734,0.187325 0.0303,0.01235 0.0751,0.02011 0.13476,0.02328 1.09009,0.06209 2.13501,0.30868 3.13549,0.740128 0.76271,0.329141 1.24531,0.865011 1.44745,1.608314 0.0808,0.29598 0.0794,0.624416 -0.005,0.984955 -0.33302,1.426986 -1.1116,2.586567 -2.33539,3.478036 -0.0748,0.05468 -0.0949,0.158398 -0.0452,0.23742 0.5327,0.854428 1.24143,1.481667 2.12584,1.882422 0.79728,0.360539 1.41358,0.564092 1.84891,0.610659 0.65475,0.06914 1.73566,0.06985 3.24308,0.0025 0.0409,-0.0018 0.0466,-0.01693 0.0173,-0.04516 -0.65158,-0.635001 -1.29751,-1.275998 -1.93745,-1.922992 -0.30727,-0.310445 -0.74083,-0.582789 -1.29963,-0.816328 -0.0653,-0.02681 -0.0949,-0.05468 -0.0889,-0.08431 0.007,-0.03422 0.0667,-0.05821 0.17815,-0.07197 0.0875,-0.01094 0.17498,-0.01376 0.26211,-0.0099 1.0922,0.05715 2.02071,-0.190853 2.78518,-0.744362 0.18768,-0.135113 0.26741,-0.309386 0.23883,-0.522464 -0.005,-0.03775 -0.0257,-0.07338 -0.0586,-0.09913 -0.47342,-0.366183 -1.01741,-0.648758 -1.63265,-0.848078 -0.0173,-0.0053 -0.0279,-0.0187 -0.0378,-0.0321 -0.006,-0.0085 -0.01,-0.01799 -0.0123,-0.02822 -0.002,-0.0099 -0.004,-0.01976 -0.002,-0.03034 0.002,-0.01658 0.006,-0.03351 0.018,-0.04621 0.61454,-0.629355 1.03716,-1.380066 1.26823,-2.253191 0.079,-0.297745 0.12277,-0.479073 0.13088,-0.544337 0.0222,-0.176389 0.01,-0.366183 -0.0353,-0.56903 -0.14852,-0.664281 -0.43991,-1.210381 -0.87277,-1.638653 -0.387,-0.382764 -0.89323,-0.694267 -1.52012,-0.933803 -0.71614,-0.274461 -1.50248,-0.367594 -2.35796,-0.280458 -0.18839,0.01905 -0.21167,-0.03387 -0.0688,-0.157692 0.26493,-0.231775 0.61947,-0.431094 1.06362,-0.597253 1.84609,-0.693561 3.58951,-1.5875 5.22923,-2.681464 0.70167,-0.468842 1.3282,-1.023055 1.87959,-1.661936 0.37465,-0.434622 0.66569,-0.919692 0.87383,-1.454856 0.18591,-0.480836 0.24306,-0.9652 0.17145,-1.45415 -0.048,-0.332669 -0.16827,-0.606072 -0.36089,-0.819855 -0.2099,-0.232481 -0.47378,-0.400403 -0.79199,-0.50412 -0.33125,-0.10795 -0.59936,-0.164042 -0.80538,-0.16898 -0.92005,-0.02187 -1.4785,-0.0448 -1.67535,-0.06844 -0.23001,-0.02787 -0.27305,-0.07232 -0.12982,-0.133703 0.0279,-0.01129 0.0642,-0.02222 0.10901,-0.03281 2.01965,-0.473075 3.5694,-1.591734 4.65067,-3.355623 0.22154,-0.362303 0.37994,-0.721078 0.47342,-1.075619 0.0342,-0.131587 -0.009,-0.167217 -0.13088,-0.106539 -0.56444,0.280458 -1.13876,0.525639 -1.72332,0.735541 -0.11818,0.04233 -0.35666,0.102659 -0.71578,0.180975 -0.27305,0.05962 -0.50482,0.147814 -0.69391,0.264231 -0.17815,0.110419 -0.20144,0.08608 -0.0759,-0.06668 -0.0145,0.03634 -0.0303,0.07091 -0.0441,0.107244 0.53975,-0.466725 1.01423,-0.987072 1.46932,-1.522941 0.45367,-0.536928 0.87771,-1.096787 1.27952,-1.670756 0.40605,-0.568325 0.76094,-1.186039 1.05234,-1.845381 0.2547,-0.594077 0.44309,-1.238603 0.45649,-1.888419 0.0183,-0.04375 0.0328,-0.0882 0.0512,-0.131586 0.0536,-0.122767 0.0339,-0.14217 -0.0519,-0.06844 0,-0.0049 3.5e-4,-0.0099 0,-0.01446 -0.004,0.0085 -0.009,0.01623 -0.0127,0.02469 -0.004,0.0032 -0.005,0.0039 -0.009,0.0071 -0.58138,0.543278 -1.12607,1.145822 -1.63372,1.807281 -1.48942,1.942041 -3.1182,3.7592 -4.88632,5.45218 m 3.0861,23.432207 c 0.56691,0.784226 1.07174,1.596673 1.51377,2.438048 0.17286,0.328789 0.59125,1.216025 1.25448,2.661708 0.2928,0.640292 0.53375,1.314803 0.72319,2.022828 0.0236,0.08996 0.0579,0.09419 0.10195,0.01235 0.21343,-0.390877 0.45756,-0.793397 0.73272,-1.207911 0.0952,-0.14358 0.2159,-0.250825 0.3609,-0.321733 0.12276,-0.06033 0.27375,-0.06985 0.45402,-0.02822 0.16828,0.0381 0.33373,0.0822 0.49601,0.132291 0.003,7.06e-4 0.006,0.0014 0.009,0.0021 0.0349,0.0056 0.0674,-0.01729 0.073,-0.05115 0.0335,-0.192616 0.0646,-0.371122 0.0931,-0.536222 0.0261,-0.150636 0.067,-0.327731 0.12348,-0.530931 0.20637,-0.737658 0.32349,-1.527527 0.35101,-2.369255 0.0441,-1.335617 -0.0374,-2.600325 -0.24448,-3.793773 -0.21166,-1.216378 -0.58596,-2.744258 -1.12359,-4.583289 -0.0617,-0.208844 -0.13723,-0.409222 -0.22649,-0.600781 -0.036,-0.07832 -0.0547,-0.07444 -0.0572,0.01094 -0.007,0.236714 0.01,0.470252 0.0487,0.701322 0.0716,0.431447 0.10936,0.661105 0.11253,0.688975 0.0349,0.310797 0.0727,0.620889 0.11254,0.929922 0.049,0.376414 0.0776,0.687917 0.0857,0.935214 0.0318,0.911931 -0.0268,1.745192 -0.17638,2.499078 -0.22155,1.120775 -0.44486,2.269772 -0.66887,3.439936 0.072,-0.694266 0.0529,-1.401939 -0.11995,-2.120547 -0.24412,-1.008239 -0.72954,-1.908175 -1.22766,-2.723092 -0.50412,-0.821267 -1.02412,-1.562805 -1.4605,-2.3495 -0.44133,-0.787047 -0.80045,-1.595261 -0.97649,-2.577395 -0.42157,0.921103 -0.34114,2.037292 -0.0501,3.001787 0.28893,0.981075 0.79164,1.860903 1.28412,2.662767 0.49671,0.807861 0.99483,1.558925 1.38641,2.35338 0.28611,0.557742 0.49566,1.187098 0.73025,1.83762 -1.13559,-1.045281 -2.35267,-1.916642 -3.65372,-2.607381 -0.12276,-0.06526 -0.14287,-0.04128 -0.0614,0.07091 m -2.03306,13.318068 -0.65334,-2.414059 c -0.22754,-0.812447 -0.48013,-1.635125 -0.82339,-2.435577 -0.34572,-0.79622 -0.77399,-1.582209 -1.38183,-2.225676 0.19191,0.859367 0.3683,1.671109 0.53799,2.494492 0.17251,0.820561 0.35031,1.644298 0.57997,2.47015 0.22965,0.824089 0.51258,1.653117 0.9144,2.438753 0.40322,0.780698 0.92322,1.528939 1.62066,2.075745 -0.31398,-0.823383 -0.5715,-1.604434 -0.79446,-2.403828 m 2.09374,-24.283107 c 0.77752,-0.191206 1.54587,-0.481542 2.26377,-0.918986 0.71226,-0.433917 1.37442,-1.035756 1.8154,-1.783292 0.43568,-0.738364 0.6671,-1.64077 0.45896,-2.454275 -0.38417,0.733425 -0.8315,1.288344 -1.3395,1.776589 -0.50694,0.484716 -1.06362,0.883355 -1.67252,1.258358 -0.60713,0.372181 -1.26188,0.716139 -1.92793,1.090436 -0.66322,0.371828 -1.27811,0.733425 -2.05704,1.008945 0.78175,0.318911 1.6838,0.210961 2.45886,0.02222 m 4.37973,-11.052529 -0.9405,0.720725 c -0.32667,0.245181 -0.66464,0.484717 -1.11443,0.775406 0.45332,0.297745 1.01283,0.340431 1.5233,0.251883 0.51541,-0.09031 0.99166,-0.322086 1.39382,-0.631119 0.3997,-0.308328 0.72496,-0.687917 0.96485,-1.108781 0.23848,-0.423333 0.40816,-0.875947 0.45861,-1.411111 -0.51117,0.170745 -0.90911,0.420158 -1.27847,0.663222 -0.36794,0.245181 -0.6925,0.497064 -1.00718,0.739775 m 16.52835,59.995511 c -0.0318,0.91969 -0.23354,1.70533 -0.60431,2.35726 -0.0197,0.0353 -0.0353,0.0325 -0.0466,-0.007 -0.21872,-0.76588 -0.49635,-1.50707 -0.83255,-2.2225 -0.36865,-0.78705 -0.7232,-1.46685 -1.06433,-2.0387 -0.39123,-0.65441 -0.8509,-1.27177 -1.38042,-1.85173 -0.16404,-0.17957 -0.23425,-0.14817 -0.21061,0.0942 0.01,0.10371 0.0384,0.2547 0.0868,0.45296 0.30586,1.25871 0.57574,2.60632 0.80892,4.04213 0.0889,0.54751 0.14429,1.04669 0.16651,1.49789 0.09,1.85773 0.0825,3.71475 -0.0208,5.57072 -0.20144,3.60045 -0.8068,7.12999 -1.8161,10.58828 -0.30833,1.05727 -0.56056,2.1283 -0.75636,3.21239 -0.0236,0.13053 -0.0691,0.22578 -0.13687,0.2854 -0.073,0.0642 -0.10619,0.048 -0.10055,-0.049 0.0117,-0.22437 0.0247,-0.44062 0.0392,-0.64876 0.0116,-0.16545 0.0367,-0.38135 0.0759,-0.64734 0.21202,-1.45945 0.16439,-2.91254 -0.14323,-4.35928 -0.0847,-0.39935 -0.3937,-1.40159 -0.92639,-3.00532 -0.61842,-1.8609 -1.53529,-3.55847 -2.75132,-5.09235 -0.0346,-0.0448 -0.0533,-0.0388 -0.055,0.0183 -0.0519,2.29165 -0.40005,4.53602 -1.04387,6.73206 -0.59443,2.02743 -1.24848,3.83083 -1.96144,5.40951 -0.65934,1.45767 -1.3261,2.96545 -2.00096,4.52296 -0.0286,0.066 -0.0702,0.12277 -0.12488,0.17004 -0.079,0.0684 -0.10689,0.037 -0.0833,-0.0942 0.24377,-1.36349 0.35842,-2.73826 0.3429,-4.12539 -0.002,-0.0882 -0.0198,-0.0907 -0.0543,-0.007 -1.21355,2.91006 -2.53823,5.76827 -3.97333,8.57391 -0.14535,0.28469 -0.52564,1.00647 -1.14089,2.16499 -1.63865,3.08787 -3.163,6.23218 -4.572,9.43293 -0.0871,0.19756 -0.18591,0.38911 -0.29633,0.57538 -0.0233,0.0406 -0.0501,0.066 -0.0804,0.0759 -0.0653,0.0219 -0.0928,-0.0247 -0.0822,-0.1397 0.0621,-0.6724 0.1009,-1.34585 0.11642,-2.02036 0.0572,-2.51107 0.16545,-5.02003 0.32526,-7.52651 0.024,-0.37854 0.0307,-0.82233 0.0212,-1.33139 -0.009,-0.4445 -0.006,-0.88935 0.0109,-1.33385 0.003,-0.0751 7.1e-4,-0.133 -0.007,-0.17392 -0.0258,-0.14429 -0.0871,-0.16581 -0.18345,-0.0649 -0.0296,0.0303 -0.0554,0.0744 -0.0783,0.13229 -0.13864,0.35489 -0.39228,0.84279 -0.76023,1.46368 -0.78529,1.3282 -1.3208,2.7499 -1.60514,4.26508 -0.009,0.048 -0.0483,0.0847 -0.097,0.0903 -0.23319,0.0261 -0.4318,0.0138 -0.59443,-0.0367 -0.0367,-0.0109 -0.067,-0.0392 -0.0822,-0.0769 -0.10478,-0.2473 -0.17039,-0.45015 -0.19826,-0.60819 -0.23037,-1.29576 -0.46179,-2.57634 -0.69533,-3.84175 -0.031,-0.16722 -0.0716,-0.16969 -0.12241,-0.007 -0.45191,1.44603 -1.00224,2.85291 -1.65065,4.22098 -1.60479,3.38844 -2.72768,5.84694 -3.36797,7.37588 -0.69003,1.64889 -1.32468,3.31894 -1.90324,5.01015 -0.53975,1.57727 -0.97366,3.18276 -1.30069,4.81683 -0.0123,0.0596 -0.0289,0.10936 -0.0501,0.14923 -0.0882,0.16439 -0.13723,0.11923 -0.1471,-0.13441 -0.004,-0.0857 -0.007,-0.1457 -0.009,-0.17992 -0.10443,-1.20191 -0.30727,-2.3876 -0.60855,-3.55741 -0.22507,-0.87806 -0.65264,-1.64077 -1.28234,-2.28882 -0.0282,-0.0293 -0.0748,-0.03 -0.10407,-0.002 -0.005,0.005 -0.01,0.0113 -0.0134,0.0176 -1.71662,3.20816 -3.48968,6.38775 -5.31989,9.53851 -0.15981,0.27588 -0.40005,0.79802 -0.71967,1.56669 -0.0236,0.0568 -0.0547,0.0949 -0.0928,0.11356 -0.0705,0.0336 -0.10054,-0.0136 -0.0907,-0.14182 0.006,-0.0907 0.01,-0.14248 0.01,-0.15557 0.0131,-0.71713 0.003,-1.41524 -0.0296,-2.09518 -0.007,-0.16218 -0.0459,-0.1699 -0.11606,-0.0233 -1.03929,2.1795 -2.04964,4.37127 -3.03036,6.57585 -0.41452,0.93059 -0.77823,1.88062 -1.0915,2.85006 -0.0187,0.0561 -0.0392,0.10445 -0.061,0.14428 -0.12665,0.22437 -0.1845,0.19128 -0.17392,-0.0991 10e-4,-0.048 0.008,-0.10403 0.0183,-0.16757 0.14534,-0.8329 0.20144,-1.67227 0.16898,-2.51742 -0.0123,-0.31499 0.0543,-0.78355 0.19932,-1.40628 0.0106,-0.0464 0.013,-0.0889 0.008,-0.12693 -0.0215,-0.15349 -0.073,-0.16259 -0.15452,-0.0271 -0.0261,0.0441 -0.049,0.0783 -0.0684,0.10265 -1.86901,2.37907 -3.72533,4.76885 -5.56824,7.16912 -2.292,2.98619 -4.26791,6.16906 -5.928079,9.54938 -0.04657,0.0945 -0.08925,0.0932 -0.128411,-0.005 -0.246592,-0.6011 -0.521053,-1.19243 -0.823736,-1.77313 -0.03528,-0.067 -0.341489,-0.64065 -0.919339,-1.72075 -0.522817,-0.97896 -1.08832,-1.93368 -1.696156,-2.86385 -0.706261,-1.08095 -1.440391,-2.14175 -2.202744,-3.18315 -0.837848,-1.14377 -1.258711,-1.7188 -1.262945,-1.72543 -0.883003,-1.21956 -1.773061,-2.43347 -2.671586,-3.64078 -0.428272,-0.57534 -0.809978,-1.17189 -1.14547,-1.79034 -0.06914,-0.12803 -0.113241,-0.12016 -0.131938,0.0244 -0.08678,0.6707 -0.16757,1.34126 -0.242712,2.01196 -0.03986,0.35056 -0.06209,0.6893 -0.06703,1.01562 -0.0081,0.48464 -0.0046,0.82514 0.01094,1.02097 0.01376,0.16856 -0.03493,0.24338 -0.147109,0.22394 -0.03422,-0.006 -0.06244,-0.0367 -0.07091,-0.0772 -0.122414,-0.64065 -0.319969,-1.25702 -0.593372,-1.84933 -0.8255,-1.79377 -1.61537,-3.60423 -2.369256,-5.43098 -0.281517,-0.68048 -0.598664,-1.34412 -0.951089,-1.99002 -0.0194,-0.0367 -0.03104,-0.0342 -0.03387,0.007 -0.03704,0.48038 -0.04551,0.9084 -0.02611,1.28379 0.01482,0.28702 -0.0127,0.55065 -0.08185,0.79058 -0.01129,0.0391 -0.02222,0.0387 -0.03175,-0.002 -0.142875,-0.56762 -0.428977,-1.24135 -0.857602,-2.02036 -1.340556,-2.43776 -2.646892,-4.89415 -3.919009,-7.36854 -0.313267,-0.6103 -0.672042,-1.19203 -1.077031,-1.74519 -0.01729,-0.0233 -0.05009,-0.0282 -0.07267,-0.0109 -0.0025,0.002 -0.0046,0.004 -0.0067,0.006 -0.299508,0.32068 -0.550333,0.71896 -0.752475,1.19451 -0.521758,1.22378 -0.888294,2.43981 -1.100314,3.64807 -0.0067,0.0392 -0.0321,0.26459 -0.07726,0.67663 -0.02328,0.22613 -0.06738,0.44944 -0.131939,0.66957 -0.05468,0.18909 -0.115005,0.20814 -0.181328,0.0561 -0.01552,-0.0367 -0.02469,-0.0801 -0.02822,-0.13088 -0.02434,-0.38241 -0.06632,-0.68403 -0.125942,-0.90417 -0.652638,-2.41405 -1.243894,-4.27037 -1.774472,-5.56824 -0.685447,-1.67746 -1.623483,-3.69676 -2.814814,-6.0579 -0.670278,-1.32997 -1.387122,-2.9531 -2.149122,-4.86939 -7.06e-4,-0.002 -0.14852,-0.3937 -0.443089,-1.17369 -0.386292,-1.02729 -0.8382,-1.98932 -1.354314,-2.88573 -0.173214,-0.30021 -0.274814,-0.27799 -0.3048,0.0674 -0.110067,1.28482 -0.314325,2.54777 -0.613128,3.78884 -0.0025,0.008 -0.01446,0.0713 -0.03563,0.18944 -0.05715,0.30762 -0.243416,0.39617 -0.559152,0.26564 -0.03598,-0.0152 -0.06703,-0.0423 -0.08925,-0.0783 -0.145345,-0.23565 -0.276931,-0.54433 -0.394406,-0.92639 -0.511528,-1.65523 -1.203325,-3.19299 -2.075039,-4.61257 -0.180622,-0.29351 -0.244475,-0.27023 -0.191205,0.0699 0.0635,0.41275 0.09701,0.82338 0.100541,1.23119 0.0088,1.12819 0.08043,2.51531 0.215195,4.16067 0.07091,0.86501 0.117828,1.86196 0.140758,2.9912 0,0.007 0.02293,0.58244 0.06844,1.72544 0.02787,0.70273 0.0127,1.4044 -0.04515,2.10608 -0.0025,0.0321 -0.01023,0.055 -0.02328,0.0688 -0.02928,0.0335 -0.05927,0.0162 -0.09031,-0.0515 -0.610658,-1.34443 -1.211086,-2.69416 -1.801636,-4.04812 -0.52952,-1.2132 -1.431925,-2.90089 -2.707217,-5.06307 -1.491192,-2.52836 -2.798234,-5.14879 -3.921125,-7.86165 -0.5334,-1.28976 -1.13665,-2.51742 -1.808692,-3.6823 -0.148519,-0.25788 -0.192264,-0.2413 -0.130881,0.0501 0.06809,0.32314 0.08573,0.64805 0.05362,0.97543 -0.09842,1.02306 -0.04727,2.038 0.153105,3.04482 0.01305,0.0649 0.0081,0.11501 -0.01587,0.14923 -0.02681,0.0402 -0.06562,0.0582 -0.116064,0.055 -0.03351,-0.002 -0.06632,-0.0279 -0.08714,-0.0674 -0.78493,-1.52647 -1.264708,-2.49731 -1.440392,-2.91253 -1.229077,-2.921 -2.169936,-5.73299 -2.82187,-8.43704 -0.4318,-1.78894 -0.668513,-3.74474 -0.710141,-5.8667 -7.06e-4,-0.0409 -0.01341,-0.0452 -0.03775,-0.0123 -0.582789,0.80222 -0.995892,1.44604 -1.241073,1.93252 -0.592631,1.17863 -1.143705,2.59644 -1.65167,4.25238 -0.336232,1.09432 -0.550651,2.01225 -0.642691,2.75379 -0.03916,0.3115 -0.09042,1.13771 -0.152858,2.47826 -0.02039,0.42722 0.05761,1.24919 0.233609,2.46592 0.0088,0.0603 0.0088,0.10936 0,0.14675 -0.02219,0.0956 -0.07168,0.11325 -0.14926,0.0526 -0.0285,-0.0219 -0.05045,-0.0579 -0.06131,-0.10125 -0.270716,-1.06299 -0.583665,-2.11356 -0.938525,-3.15144 -0.799817,-2.33468 -1.364121,-4.72228 -1.694003,-7.1628 -0.120721,-0.89006 -0.213748,-1.70004 -0.280176,-2.43029 -0.139312,-1.53811 -0.175966,-3.21275 -0.108585,-5.02496 0.02992,-0.81739 0.08008,-1.54094 0.150212,-2.16959 0.05221,-0.47343 0.184256,-1.18392 0.3955,-2.13219 0.243769,-1.09819 0.474874,-2.19957 0.693561,-3.30411 0.01171,-0.0571 0.01309,-0.10619 0.0038,-0.14711 -0.02783,-0.13265 -0.09271,-0.13723 -0.194698,-0.0134 -0.261691,0.31997 -0.519677,0.64311 -0.773219,0.96943 -0.590903,0.75953 -1.060803,1.58856 -1.409735,2.48673 -0.361597,0.93169 -0.757097,1.84468 -1.186074,2.73897 -0.02191,0.0466 -0.043,0.0459 -0.06354,-10e-4 -0.135466,-0.30903 -0.24832,-0.6163 -0.338984,-0.92146 -0.08502,-0.28539 -0.14291,-0.60607 -0.173919,-0.96167 -0.100859,-1.14723 -0.07373,-2.36149 0.08185,-3.64208 0.151059,-1.23789 0.335562,-2.37984 0.553579,-3.42688 0.105833,-0.50976 0.278235,-1.3074 0.516078,-2.392539 0.835761,-3.808244 2.215475,-7.302155 4.139066,-10.480683 0.65017,-1.073503 1.477787,-2.220736 2.483203,-3.441347 0.439597,-0.534106 0.987073,-1.138414 1.642181,-1.81222 0.720372,-0.742597 1.44392,-1.481667 2.170995,-2.217561 0.575028,-0.582436 1.141942,-1.234722 1.700036,-1.956859 0.04939,-0.06421 0.06668,-0.147461 0.04763,-0.226483 -0.267758,-1.100667 -0.557036,-2.187575 -0.868892,-3.261431 -0.471663,-1.621014 -0.912988,-3.250142 -1.324328,-4.887736 -0.179564,-0.716492 -0.281516,-1.342672 -0.305858,-1.878542 -0.03422,-0.763764 -0.0035,-1.527175 0.09172,-2.290939 0.09737,-0.777522 0.297392,-1.527528 0.601134,-2.250722 0.203905,-0.485423 0.41275,-0.968375 0.627592,-1.448859 0.09278,-0.208139 0.203552,-0.396169 0.331611,-0.564091 0.02646,-0.03563 0.02893,-0.08361 0.0064,-0.121356 -0.755,-1.224492 -1.314153,-2.499078 -1.677867,-3.823053 -0.630061,-2.29482 -1.077383,-4.811536 -1.341614,-7.549445 -0.250472,-2.597856 -0.230011,-5.035197 0.06138,-7.312378 0.188383,-1.468614 0.559506,-2.977092 1.113367,-4.525787 0.341136,-0.953558 0.645936,-1.710266 0.9144,-2.270125 0.567619,-1.187803 1.311275,-2.265892 2.229555,-3.234267 0.667456,-0.704144 1.420637,-1.18498 2.259542,-1.442861 0.699911,-0.215547 1.451681,-0.231775 2.255309,-0.04904 0.952147,0.216958 1.826683,0.606778 2.623961,1.168753 1.123244,0.792339 2.211917,1.630539 3.26637,2.514953 3.206044,2.688872 6.418086,5.371395 9.636125,8.047567 2.1082,1.753306 4.062237,3.665009 5.861756,5.734756 0.101247,0.116769 0.18027,0.230364 0.23742,0.340431 0.02081,0.03916 0.06668,0.05856 0.109008,0.04516 1.174044,-0.361244 2.350206,-0.607836 3.528483,-0.739069 0.843139,-0.09384 1.507773,-0.138289 1.993195,-0.133703 0.704145,0.0067 1.368778,0.107597 1.993547,0.30233 0.716492,0.223662 1.407937,0.374298 2.074334,0.451909 0.509411,0.05856 1.212497,0.09102 2.109964,0.09772 0.781755,0.0056 1.561394,-0.03704 2.339975,-0.128411 1.581856,-0.185208 3.161947,-0.381353 4.740981,-0.588786 0.936625,-0.122414 1.875367,-0.183092 2.816932,-0.182386 0.65934,0.0011 1.47285,0.0568 2.44052,0.167569 1.13806,0.130528 2.27365,0.282928 3.40607,0.456848 1.39947,0.21343 2.88749,0.313619 4.46299,0.299508 0.60995,-0.0056 1.16099,-0.06668 1.65206,-0.183445 0.27093,-0.06456 0.84314,-0.227541 1.71697,-0.489302 0.43744,-0.131587 0.8509,-0.210609 1.24072,-0.237773 0.86184,-0.06103 1.57903,-0.05327 2.15159,0.02328 1.28976,0.173214 2.57351,0.464608 3.85022,0.875241 0.0631,0.0194 0.13123,0.0053 0.17991,-0.0381 0.21626,-0.192616 0.42298,-0.40005 0.62054,-0.622652 0.34255,-0.386292 0.51541,-0.580673 0.51858,-0.583848 1.03964,-1.100666 2.33751,-2.341739 3.89432,-3.722864 4.24356,-3.762022 8.53581,-7.466542 12.87674,-11.113206 0.9906,-0.832203 2.1082,-1.428045 3.35315,-1.78682 0.67628,-0.195086 1.39312,-0.190853 2.15018,0.012 0.74154,0.19932 1.36596,0.50412 1.8729,0.915459 1.08656,0.880533 1.97662,1.927931 2.67018,3.142898 0.67945,1.189566 1.20932,2.437341 1.58961,3.743678 0.16334,0.56268 0.35878,1.354666 0.58738,2.375253 0.31961,1.43263 0.51752,2.752019 0.59196,3.957814 0.0656,1.041753 0.0282,2.187575 -0.11218,3.437467 -0.0653,0.583494 -0.16757,1.392766 -0.30727,2.428169 -0.43815,3.236384 -1.27459,6.372578 -2.51002,9.408584 -0.0995,0.244475 -0.2794,0.515056 -0.53975,0.811389 -0.025,0.02787 -0.03,0.06738 -0.0134,0.09913 0.70167,1.339497 1.21002,2.7432 1.52506,4.211108 0.18062,0.840317 0.25082,1.649236 0.20884,2.426759 -0.0462,0.875947 -0.18486,1.776589 -0.41593,2.700867 -0.45755,1.837266 -0.91969,3.673122 -1.38535,5.507214 -0.18133,0.712964 -0.33585,1.19768 -0.46496,1.453797 -0.12418,0.245533 -0.11642,0.458258 0.0219,0.63747 0.52458,0.679097 1.07914,1.331736 1.66334,1.958269 1.09009,1.169811 1.64607,1.767064 1.66794,1.791406 1.32115,1.513417 2.45674,2.962628 3.40854,4.346928 0.70485,1.026583 1.40758,2.212269 2.1082,3.557764 0.38206,0.731661 0.72319,1.472495 1.02341,2.2225 1.19415,2.981678 2.05352,6.063545 2.57704,9.244541 0.13723,0.83608 0.28928,1.91135 0.45543,3.2258 0.10196,0.80469 0.14041,1.57163 0.11501,2.30188 m -32.31942,22.44654 c -0.004,-0.3309 -0.0272,-0.66075 -0.0755,-0.98777 0.0557,0.32667 0.0811,0.65616 0.0755,0.98777"
       style="fill:#1c1c1a;fill-opacity:1;fill-rule:nonzero;stroke:none;stroke-width:0.0352778" />
  </g>
</svg>
